<svg xmlns="http://www.w3.org/2000/svg" version="1.1" xmlns:xlink="http://www.w3.org/1999/xlink" xmlns:svgjs="http://svgjs.com/svgjs" width="1440" height="560" preserveAspectRatio="none" viewBox="0 0 1440 560"><g mask="url(&quot;#SvgjsMask1069&quot;)" fill="none"><rect width="1440" height="560" x="0" y="0" fill="rgba(0, 0, 0, 1)"></rect><path d="M1069 355L1068 526" stroke-width="10" stroke="url(#SvgjsLinearGradient1070)" stroke-linecap="round" class="Down"></path><path d="M457 336L456 14" stroke-width="8" stroke="url(#SvgjsLinearGradient1070)" stroke-linecap="round" class="Down"></path><path d="M618 100L617 -97" stroke-width="8" stroke="url(#SvgjsLinearGradient1070)" stroke-linecap="round" class="Down"></path><path d="M948 233L947 602" stroke-width="8" stroke="url(#SvgjsLinearGradient1071)" stroke-linecap="round" class="Up"></path><path d="M40 532L39 362" stroke-width="8" stroke="url(#SvgjsLinearGradient1070)" stroke-linecap="round" class="Down"></path><path d="M380 471L379 256" stroke-width="10" stroke="url(#SvgjsLinearGradient1071)" stroke-linecap="round" class="Up"></path><path d="M583 519L582 666" stroke-width="10" stroke="url(#SvgjsLinearGradient1071)" stroke-linecap="round" class="Up"></path><path d="M757 434L756 74" stroke-width="8" stroke="url(#SvgjsLinearGradient1071)" stroke-linecap="round" class="Up"></path><path d="M1077 290L1076 631" stroke-width="10" stroke="url(#SvgjsLinearGradient1071)" stroke-linecap="round" class="Up"></path><path d="M747 141L746 -195" stroke-width="6" stroke="url(#SvgjsLinearGradient1071)" stroke-linecap="round" class="Up"></path><path d="M704 369L703 757" stroke-width="6" stroke="url(#SvgjsLinearGradient1071)" stroke-linecap="round" class="Up"></path><path d="M893 45L892 385" stroke-width="10" stroke="url(#SvgjsLinearGradient1071)" stroke-linecap="round" class="Up"></path><path d="M82 384L81 538" stroke-width="8" stroke="url(#SvgjsLinearGradient1070)" stroke-linecap="round" class="Down"></path><path d="M1031 132L1030 352" stroke-width="6" stroke="url(#SvgjsLinearGradient1071)" stroke-linecap="round" class="Up"></path><path d="M507 37L506 -197" stroke-width="6" stroke="url(#SvgjsLinearGradient1071)" stroke-linecap="round" class="Up"></path><path d="M974 559L973 357" stroke-width="8" stroke="url(#SvgjsLinearGradient1070)" stroke-linecap="round" class="Down"></path><path d="M1139 268L1138 598" stroke-width="6" stroke="url(#SvgjsLinearGradient1070)" stroke-linecap="round" class="Down"></path><path d="M739 124L738 -54" stroke-width="10" stroke="url(#SvgjsLinearGradient1070)" stroke-linecap="round" class="Down"></path><path d="M916 221L915 -37" stroke-width="10" stroke="url(#SvgjsLinearGradient1070)" stroke-linecap="round" class="Down"></path><path d="M460 466L459 72" stroke-width="8" stroke="url(#SvgjsLinearGradient1071)" stroke-linecap="round" class="Up"></path><path d="M1318 234L1317 -97" stroke-width="10" stroke="url(#SvgjsLinearGradient1070)" stroke-linecap="round" class="Down"></path><path d="M1007 4L1006 385" stroke-width="10" stroke="url(#SvgjsLinearGradient1071)" stroke-linecap="round" class="Up"></path><path d="M1375 278L1374 658" stroke-width="10" stroke="url(#SvgjsLinearGradient1071)" stroke-linecap="round" class="Up"></path><path d="M156 94L155 493" stroke-width="6" stroke="url(#SvgjsLinearGradient1071)" stroke-linecap="round" class="Up"></path><path d="M504 511L503 301" stroke-width="6" stroke="url(#SvgjsLinearGradient1071)" stroke-linecap="round" class="Up"></path><path d="M154 268L153 87" stroke-width="6" stroke="url(#SvgjsLinearGradient1071)" stroke-linecap="round" class="Up"></path><path d="M706 437L705 616" stroke-width="6" stroke="url(#SvgjsLinearGradient1071)" stroke-linecap="round" class="Up"></path><path d="M883 328L882 677" stroke-width="10" stroke="url(#SvgjsLinearGradient1071)" stroke-linecap="round" class="Up"></path><path d="M95 135L94 -77" stroke-width="8" stroke="url(#SvgjsLinearGradient1070)" stroke-linecap="round" class="Down"></path><path d="M405 430L404 619" stroke-width="10" stroke="url(#SvgjsLinearGradient1070)" stroke-linecap="round" class="Down"></path><path d="M1207 46L1206 -287" stroke-width="8" stroke="url(#SvgjsLinearGradient1071)" stroke-linecap="round" class="Up"></path><path d="M594 193L593 -197" stroke-width="10" stroke="url(#SvgjsLinearGradient1070)" stroke-linecap="round" class="Down"></path><path d="M756 348L755 684" stroke-width="10" stroke="url(#SvgjsLinearGradient1070)" stroke-linecap="round" class="Down"></path><path d="M847 390L846 545" stroke-width="6" stroke="url(#SvgjsLinearGradient1070)" stroke-linecap="round" class="Down"></path><path d="M612 371L611 116" stroke-width="10" stroke="url(#SvgjsLinearGradient1070)" stroke-linecap="round" class="Down"></path><path d="M875 136L874 -51" stroke-width="6" stroke="url(#SvgjsLinearGradient1070)" stroke-linecap="round" class="Down"></path></g><defs><mask id="SvgjsMask1069"><rect width="1440" height="560" fill="#ffffff"></rect></mask><linearGradient x1="0%" y1="0%" x2="0%" y2="100%" id="SvgjsLinearGradient1070"><stop stop-color="rgba(48, 49, 49, 0)" offset="0"></stop><stop stop-color="rgba(48, 49, 49, 1)" offset="1"></stop></linearGradient><linearGradient x1="0%" y1="100%" x2="0%" y2="0%" id="SvgjsLinearGradient1071"><stop stop-color="rgba(48, 49, 49, 0)" offset="0"></stop><stop stop-color="rgba(48, 49, 49, 1)" offset="1"></stop></linearGradient></defs></svg>