<svg xmlns="http://www.w3.org/2000/svg" version="1.1" xmlns:xlink="http://www.w3.org/1999/xlink" xmlns:svgjs="http://svgjs.com/svgjs" width="1440" height="560" preserveAspectRatio="none" viewBox="0 0 1440 560"><g mask="url(&quot;#SvgjsMask1103&quot;)" fill="none"><rect width="1440" height="560" x="0" y="0" fill="rgba(25, 25, 24, 1)"></rect><path d="M0,440.267C104.273,460.684,211.754,523.213,309.546,481.663C408.744,439.516,461.144,328.831,499.415,228.075C536.11,131.469,536.72,27.229,520.951,-74.901C505.311,-176.2,479.907,-280.349,409.424,-354.768C340.218,-427.838,238.945,-458.257,140.073,-477.045C48.075,-494.527,-45.851,-488.25,-134.519,-458.13C-220.634,-428.877,-302.052,-381.701,-356.044,-308.514C-407.979,-238.116,-411.288,-147.446,-427.184,-61.42C-443.784,28.412,-487.145,122.071,-451.122,206.021C-414.963,290.287,-321.728,331.734,-240.349,373.99C-165.069,413.079,-83.243,423.967,0,440.267" fill="#101010"></path><path d="M1440 1088.142C1535.825 1062.709 1622.671 1026.416 1711.667 982.723 1812.907 933.018 1929.799 904.856 1997.3200000000002 814.519 2071.362 715.457 2109.891 588.477 2098.379 465.339 2086.612 339.474 2011.4189999999999 231.921 1933.5430000000001 132.34300000000002 1852.278 28.432999999999993 1765.31-79.894 1639.922-120.87300000000005 1513.051-162.337 1376.11-131.28499999999997 1248.711-91.47199999999998 1123.01-52.188999999999965 983.579-7.2169999999999845 915.497 105.51600000000002 849.124 215.42000000000002 909.567 354.47900000000004 901.989 482.646 895.214 597.227 847.657 706.918 873.322 818.793 902.558 946.233 938.508 1100.455 1056.598 1156.585 1176.272 1213.4679999999998 1311.929 1122.133 1440 1088.142" fill="#222220"></path></g><defs><mask id="SvgjsMask1103"><rect width="1440" height="560" fill="#ffffff"></rect></mask></defs></svg>