<svg xmlns="http://www.w3.org/2000/svg" version="1.1" xmlns:xlink="http://www.w3.org/1999/xlink" xmlns:svgjs="http://svgjs.com/svgjs" width="1440" height="560" preserveAspectRatio="none" viewBox="0 0 1440 560"><g mask="url(&quot;#SvgjsMask1016&quot;)" fill="none"><rect width="1440" height="560" x="0" y="0" fill="#0e2a47"></rect><path d="M547.14 69.9a30.92 30.92 0 1 0-60.99 10.23z" fill="#d3b714"></path><path d="M456.73 505.33 a37.22 37.22 0 1 0 74.44 0 a37.22 37.22 0 1 0 -74.44 0z" fill="#d3b714"></path><path d="M977.83 505.74 a10.37 10.37 0 1 0 20.74 0 a10.37 10.37 0 1 0 -20.74 0z" fill="#d3b714"></path><path d="M371.65 332.23a34.3 34.3 0 1 0 67.5 12.2z" stroke="#e73635"></path><path d="M1387.62 366.37 a31.82 31.82 0 1 0 63.64 0 a31.82 31.82 0 1 0 -63.64 0z" fill="rgba(255, 150, 0, 1)"></path><path d="M946.94 180.71L993.61 180.71L993.61 227.38L946.94 227.38z" stroke="#e73635"></path><path d="M1332.41 370.14a26.74 26.74 0 1 0 27.79 45.69z" stroke="rgba(255, 150, 0, 1)"></path><path d="M1415.13 326.44L1461.94 326.44L1461.94 373.24L1415.13 373.24z" stroke="rgba(255, 150, 0, 1)"></path><path d="M874.37 31.87 a0.53 0.53 0 1 0 1.06 0 a0.53 0.53 0 1 0 -1.06 0z" stroke="rgba(255, 150, 0, 1)"></path><path d="M1334.54 497.27L1358.41 497.27L1358.41 542.41L1334.54 542.41z" fill="#d3b714"></path><path d="M997.97 414.42L1025.32 414.42L1025.32 427.55L997.97 427.55z" stroke="rgba(255, 150, 0, 1)"></path><path d="M559.4 180.56L604.35 180.56L604.35 224.73L559.4 224.73z" fill="#037b0b"></path><path d="M1168.89 45.27 a30.76 30.76 0 1 0 61.52 0 a30.76 30.76 0 1 0 -61.52 0z" fill="#d3b714"></path><path d="M1140.14 250.38L1177.45 250.38L1177.45 287.69L1140.14 287.69z" fill="#d3b714"></path><path d="M878.87 99.97L889.86 99.97L889.86 150.53L878.87 150.53z" fill="#e73635"></path><path d="M808.99 389.96L838.84 389.96L838.84 419.81L808.99 419.81z" stroke="#e73635"></path><path d="M744.18 141.52a25.97 25.97 0 1 0-37.9-35.51z" stroke="rgba(255, 150, 0, 1)"></path><path d="M137.31 30.06a38.8 38.8 0 1 0 76.58 12.52z" fill="rgba(255, 150, 0, 1)"></path><path d="M991.99 446.48L993.12 446.48L993.12 447.61L991.99 447.61z" fill="rgba(228, 255, 0, 1)"></path><path d="M110.36 209.99 a3.13 3.13 0 1 0 6.26 0 a3.13 3.13 0 1 0 -6.26 0z" fill="rgba(255, 150, 0, 1)"></path><path d="M465.94 47.57L466.5 47.57L466.5 68.48L465.94 68.48z" fill="rgba(255, 150, 0, 1)"></path><path d="M516.16 365.35 a36.26 36.26 0 1 0 72.52 0 a36.26 36.26 0 1 0 -72.52 0z" stroke="#e73635"></path><path d="M1020.54 494.43L1046.76 494.43L1046.76 520.65L1020.54 520.65z" stroke="#e73635"></path><path d="M572.29 464.79L615.57 464.79L615.57 501.09L572.29 501.09z" stroke="rgba(228, 255, 0, 1)"></path><path d="M540.09 104.6a13.11 13.11 0 1 0 25.88-4.2z" stroke="rgba(228, 255, 0, 1)"></path><path d="M866.18 53.66 a2.62 2.62 0 1 0 5.24 0 a2.62 2.62 0 1 0 -5.24 0z" fill="rgba(228, 255, 0, 1)"></path><path d="M907.77 152.28L927.12 152.28L927.12 190.69L907.77 190.69z" stroke="rgba(228, 255, 0, 1)"></path><path d="M1395.14 332.7a50.1 50.1 0 1 0 45.88-89.08z" stroke="rgba(228, 255, 0, 1)"></path><path d="M760.7 350.82a19.43 19.43 0 1 0-34.1-18.65z" fill="#e73635"></path><path d="M857.42 488.62L862.8 488.62L862.8 494L857.42 494z" fill="#037b0b"></path><path d="M32.88 349.71L60.73 349.71L60.73 377.56L32.88 377.56z" fill="#037b0b"></path><path d="M622.13 137.13a46.61 46.61 0 1 0 65.25-66.58z" stroke="#037b0b"></path><path d="M1276.33 103.41L1324.51 103.41L1324.51 151.59L1276.33 151.59z" fill="rgba(228, 255, 0, 1)"></path></g><defs><mask id="SvgjsMask1016"><rect width="1440" height="560" fill="#ffffff"></rect></mask></defs></svg>