<svg xmlns="http://www.w3.org/2000/svg" version="1.1" xmlns:xlink="http://www.w3.org/1999/xlink" xmlns:svgjs="http://svgjs.com/svgjs" width="1440" height="560" preserveAspectRatio="none" viewBox="0 0 1440 560"><g mask="url(&quot;#SvgjsMask1326&quot;)" fill="none"><rect width="1440" height="560" x="0" y="0" fill="url(#SvgjsLinearGradient1327)"></rect><path d="M-53.05 396.48L-53.05 396.48" stroke="rgba(89, 94, 106, 1)" stroke-width="1.5"></path><path d="M-53.05 396.48L-57.74 517.33" stroke="rgba(89, 94, 106, 1)" stroke-width="1.5"></path><path d="M-53.05 396.48L109.13 386.8" stroke="rgba(89, 94, 106, 1)" stroke-width="1.5"></path><path d="M-53.05 396.48L57.89 517.88" stroke="rgba(89, 94, 106, 1)" stroke-width="1.5"></path><path d="M-53.05 396.48L192.73 393.26" stroke="rgba(89, 94, 106, 1)" stroke-width="1.5"></path><path d="M-53.05 396.48L71.9 655" stroke="rgba(89, 94, 106, 1)" stroke-width="1.5"></path><path d="M-53.05 396.48L-96.09 708.92" stroke="rgba(89, 94, 106, 1)" stroke-width="1.5"></path><path d="M-57.74 517.33L-57.74 517.33" stroke="rgba(89, 94, 106, 1)" stroke-width="1.5"></path><path d="M-57.74 517.33L57.89 517.88" stroke="rgba(89, 94, 106, 1)" stroke-width="1.5"></path><path d="M-57.74 517.33L71.9 655" stroke="rgba(89, 94, 106, 1)" stroke-width="1.5"></path><path d="M-57.74 517.33L-96.09 708.92" stroke="rgba(89, 94, 106, 1)" stroke-width="1.5"></path><path d="M-57.74 517.33L109.13 386.8" stroke="rgba(89, 94, 106, 1)" stroke-width="1.5"></path><path d="M-57.74 517.33L192.73 393.26" stroke="rgba(89, 94, 106, 1)" stroke-width="1.5"></path><path d="M-96.09 708.92L-96.09 708.92" stroke="rgba(89, 94, 106, 1)" stroke-width="1.5"></path><path d="M-96.09 708.92L71.9 655" stroke="rgba(89, 94, 106, 1)" stroke-width="1.5"></path><path d="M109.13 386.8L109.13 386.8" stroke="rgba(89, 94, 106, 1)" stroke-width="1.5"></path><path d="M109.13 386.8L192.73 393.26" stroke="rgba(89, 94, 106, 1)" stroke-width="1.5"></path><path d="M109.13 386.8L57.89 517.88" stroke="rgba(89, 94, 106, 1)" stroke-width="1.5"></path><path d="M57.89 517.88L57.89 517.88" stroke="rgba(89, 94, 106, 1)" stroke-width="1.5"></path><path d="M57.89 517.88L71.9 655" stroke="rgba(89, 94, 106, 1)" stroke-width="1.5"></path><path d="M71.9 655L71.9 655" stroke="rgba(89, 94, 106, 1)" stroke-width="1.5"></path><path d="M71.9 655L253.06 560.97" stroke="rgba(89, 94, 106, 1)" stroke-width="1.5"></path><path d="M192.73 393.26L192.73 393.26" stroke="rgba(89, 94, 106, 1)" stroke-width="1.5"></path><path d="M192.73 393.26L352.19 360.44" stroke="rgba(89, 94, 106, 1)" stroke-width="1.5"></path><path d="M192.73 393.26L253.06 560.97" stroke="rgba(89, 94, 106, 1)" stroke-width="1.5"></path><path d="M192.73 393.26L57.89 517.88" stroke="rgba(89, 94, 106, 1)" stroke-width="1.5"></path><path d="M192.73 393.26L362.53 554.03" stroke="rgba(89, 94, 106, 1)" stroke-width="1.5"></path><path d="M253.06 560.97L253.06 560.97" stroke="rgba(89, 94, 106, 1)" stroke-width="1.5"></path><path d="M253.06 560.97L362.53 554.03" stroke="rgba(89, 94, 106, 1)" stroke-width="1.5"></path><path d="M253.06 560.97L342.52 643.21" stroke="rgba(89, 94, 106, 1)" stroke-width="1.5"></path><path d="M253.06 560.97L57.89 517.88" stroke="rgba(89, 94, 106, 1)" stroke-width="1.5"></path><path d="M352.19 360.44L352.19 360.44" stroke="rgba(89, 94, 106, 1)" stroke-width="1.5"></path><path d="M352.19 360.44L504.23 397.75" stroke="rgba(89, 94, 106, 1)" stroke-width="1.5"></path><path d="M352.19 360.44L362.53 554.03" stroke="rgba(89, 94, 106, 1)" stroke-width="1.5"></path><path d="M352.19 360.44L497.37 521.56" stroke="rgba(89, 94, 106, 1)" stroke-width="1.5"></path><path d="M352.19 360.44L253.06 560.97" stroke="rgba(89, 94, 106, 1)" stroke-width="1.5"></path><path d="M352.19 360.44L109.13 386.8" stroke="rgba(89, 94, 106, 1)" stroke-width="1.5"></path><path d="M362.53 554.03L362.53 554.03" stroke="rgba(89, 94, 106, 1)" stroke-width="1.5"></path><path d="M362.53 554.03L342.52 643.21" stroke="rgba(89, 94, 106, 1)" stroke-width="1.5"></path><path d="M362.53 554.03L497.37 521.56" stroke="rgba(89, 94, 106, 1)" stroke-width="1.5"></path><path d="M362.53 554.03L498.53 667.84" stroke="rgba(89, 94, 106, 1)" stroke-width="1.5"></path><path d="M342.52 643.21L342.52 643.21" stroke="rgba(89, 94, 106, 1)" stroke-width="1.5"></path><path d="M342.52 643.21L498.53 667.84" stroke="rgba(89, 94, 106, 1)" stroke-width="1.5"></path><path d="M342.52 643.21L497.37 521.56" stroke="rgba(89, 94, 106, 1)" stroke-width="1.5"></path><path d="M342.52 643.21L71.9 655" stroke="rgba(89, 94, 106, 1)" stroke-width="1.5"></path><path d="M504.23 397.75L504.23 397.75" stroke="rgba(89, 94, 106, 1)" stroke-width="1.5"></path><path d="M504.23 397.75L497.37 521.56" stroke="rgba(89, 94, 106, 1)" stroke-width="1.5"></path><path d="M504.23 397.75L655.5 409.96" stroke="rgba(89, 94, 106, 1)" stroke-width="1.5"></path><path d="M504.23 397.75L681.72 489.27" stroke="rgba(89, 94, 106, 1)" stroke-width="1.5"></path><path d="M504.23 397.75L362.53 554.03" stroke="rgba(89, 94, 106, 1)" stroke-width="1.5"></path><path d="M504.23 397.75L706.22 219.82" stroke="rgba(89, 94, 106, 1)" stroke-width="1.5"></path><path d="M497.37 521.56L497.37 521.56" stroke="rgba(89, 94, 106, 1)" stroke-width="1.5"></path><path d="M498.53 667.84L498.53 667.84" stroke="rgba(89, 94, 106, 1)" stroke-width="1.5"></path><path d="M498.53 667.84L497.37 521.56" stroke="rgba(89, 94, 106, 1)" stroke-width="1.5"></path><path d="M498.53 667.84L646.95 685.85" stroke="rgba(89, 94, 106, 1)" stroke-width="1.5"></path><path d="M706.22 219.82L706.22 219.82" stroke="rgba(89, 94, 106, 1)" stroke-width="1.5"></path><path d="M706.22 219.82L799.02 227.6" stroke="rgba(89, 94, 106, 1)" stroke-width="1.5"></path><path d="M706.22 219.82L655.5 409.96" stroke="rgba(89, 94, 106, 1)" stroke-width="1.5"></path><path d="M706.22 219.82L819.68 381.24" stroke="rgba(89, 94, 106, 1)" stroke-width="1.5"></path><path d="M706.22 219.82L973.39 253.15" stroke="rgba(89, 94, 106, 1)" stroke-width="1.5"></path><path d="M655.5 409.96L655.5 409.96" stroke="rgba(89, 94, 106, 1)" stroke-width="1.5"></path><path d="M655.5 409.96L681.72 489.27" stroke="rgba(89, 94, 106, 1)" stroke-width="1.5"></path><path d="M655.5 409.96L819.68 381.24" stroke="rgba(89, 94, 106, 1)" stroke-width="1.5"></path><path d="M655.5 409.96L497.37 521.56" stroke="rgba(89, 94, 106, 1)" stroke-width="1.5"></path><path d="M655.5 409.96L834.08 495.89" stroke="rgba(89, 94, 106, 1)" stroke-width="1.5"></path><path d="M681.72 489.27L681.72 489.27" stroke="rgba(89, 94, 106, 1)" stroke-width="1.5"></path><path d="M681.72 489.27L834.08 495.89" stroke="rgba(89, 94, 106, 1)" stroke-width="1.5"></path><path d="M646.95 685.85L646.95 685.85" stroke="rgba(89, 94, 106, 1)" stroke-width="1.5"></path><path d="M646.95 685.85L818.49 669.33" stroke="rgba(89, 94, 106, 1)" stroke-width="1.5"></path><path d="M799.02 227.6L799.02 227.6" stroke="rgba(89, 94, 106, 1)" stroke-width="1.5"></path><path d="M799.02 227.6L819.68 381.24" stroke="rgba(89, 94, 106, 1)" stroke-width="1.5"></path><path d="M799.02 227.6L973.39 253.15" stroke="rgba(89, 94, 106, 1)" stroke-width="1.5"></path><path d="M819.68 381.24L819.68 381.24" stroke="rgba(89, 94, 106, 1)" stroke-width="1.5"></path><path d="M819.68 381.24L834.08 495.89" stroke="rgba(89, 94, 106, 1)" stroke-width="1.5"></path><path d="M819.68 381.24L681.72 489.27" stroke="rgba(89, 94, 106, 1)" stroke-width="1.5"></path><path d="M819.68 381.24L996.82 351.9" stroke="rgba(89, 94, 106, 1)" stroke-width="1.5"></path><path d="M834.08 495.89L834.08 495.89" stroke="rgba(89, 94, 106, 1)" stroke-width="1.5"></path><path d="M834.08 495.89L1007.53 489.98" stroke="rgba(89, 94, 106, 1)" stroke-width="1.5"></path><path d="M834.08 495.89L818.49 669.33" stroke="rgba(89, 94, 106, 1)" stroke-width="1.5"></path><path d="M818.49 669.33L818.49 669.33" stroke="rgba(89, 94, 106, 1)" stroke-width="1.5"></path><path d="M818.49 669.33L681.72 489.27" stroke="rgba(89, 94, 106, 1)" stroke-width="1.5"></path><path d="M818.49 669.33L1007.53 489.98" stroke="rgba(89, 94, 106, 1)" stroke-width="1.5"></path><path d="M818.49 669.33L819.68 381.24" stroke="rgba(89, 94, 106, 1)" stroke-width="1.5"></path><path d="M976.01 -105.39L976.01 -105.39" stroke="rgba(89, 94, 106, 1)" stroke-width="1.5"></path><path d="M976.01 -105.39L1152.17 -69.38" stroke="rgba(89, 94, 106, 1)" stroke-width="1.5"></path><path d="M976.01 -105.39L941.04 81.31" stroke="rgba(89, 94, 106, 1)" stroke-width="1.5"></path><path d="M976.01 -105.39L1125.09 93.75" stroke="rgba(89, 94, 106, 1)" stroke-width="1.5"></path><path d="M976.01 -105.39L1292.23 -67.99" stroke="rgba(89, 94, 106, 1)" stroke-width="1.5"></path><path d="M976.01 -105.39L1242.04 91.67" stroke="rgba(89, 94, 106, 1)" stroke-width="1.5"></path><path d="M941.04 81.31L941.04 81.31" stroke="rgba(89, 94, 106, 1)" stroke-width="1.5"></path><path d="M941.04 81.31L973.39 253.15" stroke="rgba(89, 94, 106, 1)" stroke-width="1.5"></path><path d="M973.39 253.15L973.39 253.15" stroke="rgba(89, 94, 106, 1)" stroke-width="1.5"></path><path d="M973.39 253.15L996.82 351.9" stroke="rgba(89, 94, 106, 1)" stroke-width="1.5"></path><path d="M973.39 253.15L1143.57 244.39" stroke="rgba(89, 94, 106, 1)" stroke-width="1.5"></path><path d="M973.39 253.15L819.68 381.24" stroke="rgba(89, 94, 106, 1)" stroke-width="1.5"></path><path d="M973.39 253.15L1125.16 389.64" stroke="rgba(89, 94, 106, 1)" stroke-width="1.5"></path><path d="M996.82 351.9L996.82 351.9" stroke="rgba(89, 94, 106, 1)" stroke-width="1.5"></path><path d="M996.82 351.9L1125.16 389.64" stroke="rgba(89, 94, 106, 1)" stroke-width="1.5"></path><path d="M996.82 351.9L1007.53 489.98" stroke="rgba(89, 94, 106, 1)" stroke-width="1.5"></path><path d="M1007.53 489.98L1007.53 489.98" stroke="rgba(89, 94, 106, 1)" stroke-width="1.5"></path><path d="M1007.53 489.98L1125.16 389.64" stroke="rgba(89, 94, 106, 1)" stroke-width="1.5"></path><path d="M1007.53 489.98L819.68 381.24" stroke="rgba(89, 94, 106, 1)" stroke-width="1.5"></path><path d="M1007.53 489.98L1120.85 675.58" stroke="rgba(89, 94, 106, 1)" stroke-width="1.5"></path><path d="M1152.17 -69.38L1152.17 -69.38" stroke="rgba(89, 94, 106, 1)" stroke-width="1.5"></path><path d="M1152.17 -69.38L1292.23 -67.99" stroke="rgba(89, 94, 106, 1)" stroke-width="1.5"></path><path d="M1152.17 -69.38L1125.09 93.75" stroke="rgba(89, 94, 106, 1)" stroke-width="1.5"></path><path d="M1125.09 93.75L1125.09 93.75" stroke="rgba(89, 94, 106, 1)" stroke-width="1.5"></path><path d="M1125.09 93.75L1242.04 91.67" stroke="rgba(89, 94, 106, 1)" stroke-width="1.5"></path><path d="M1125.09 93.75L1143.57 244.39" stroke="rgba(89, 94, 106, 1)" stroke-width="1.5"></path><path d="M1143.57 244.39L1143.57 244.39" stroke="rgba(89, 94, 106, 1)" stroke-width="1.5"></path><path d="M1143.57 244.39L1282.51 211.85" stroke="rgba(89, 94, 106, 1)" stroke-width="1.5"></path><path d="M1143.57 244.39L1125.16 389.64" stroke="rgba(89, 94, 106, 1)" stroke-width="1.5"></path><path d="M1125.16 389.64L1125.16 389.64" stroke="rgba(89, 94, 106, 1)" stroke-width="1.5"></path><path d="M1125.16 389.64L1262.22 409.38" stroke="rgba(89, 94, 106, 1)" stroke-width="1.5"></path><path d="M1120.85 675.58L1120.85 675.58" stroke="rgba(89, 94, 106, 1)" stroke-width="1.5"></path><path d="M1120.85 675.58L1255.27 701.85" stroke="rgba(89, 94, 106, 1)" stroke-width="1.5"></path><path d="M1292.23 -67.99L1292.23 -67.99" stroke="rgba(89, 94, 106, 1)" stroke-width="1.5"></path><path d="M1292.23 -67.99L1400.76 -108.34" stroke="rgba(89, 94, 106, 1)" stroke-width="1.5"></path><path d="M1242.04 91.67L1242.04 91.67" stroke="rgba(89, 94, 106, 1)" stroke-width="1.5"></path><path d="M1242.04 91.67L1282.51 211.85" stroke="rgba(89, 94, 106, 1)" stroke-width="1.5"></path><path d="M1282.51 211.85L1282.51 211.85" stroke="rgba(89, 94, 106, 1)" stroke-width="1.5"></path><path d="M1282.51 211.85L1462.2 198.21" stroke="rgba(89, 94, 106, 1)" stroke-width="1.5"></path><path d="M1282.51 211.85L1125.09 93.75" stroke="rgba(89, 94, 106, 1)" stroke-width="1.5"></path><path d="M1262.22 409.38L1262.22 409.38" stroke="rgba(89, 94, 106, 1)" stroke-width="1.5"></path><path d="M1262.22 409.38L1296.88 498.1" stroke="rgba(89, 94, 106, 1)" stroke-width="1.5"></path><path d="M1262.22 409.38L1397.84 407.88" stroke="rgba(89, 94, 106, 1)" stroke-width="1.5"></path><path d="M1262.22 409.38L1282.51 211.85" stroke="rgba(89, 94, 106, 1)" stroke-width="1.5"></path><path d="M1296.88 498.1L1296.88 498.1" stroke="rgba(89, 94, 106, 1)" stroke-width="1.5"></path><path d="M1296.88 498.1L1397.84 407.88" stroke="rgba(89, 94, 106, 1)" stroke-width="1.5"></path><path d="M1296.88 498.1L1431.49 535.9" stroke="rgba(89, 94, 106, 1)" stroke-width="1.5"></path><path d="M1255.27 701.85L1255.27 701.85" stroke="rgba(89, 94, 106, 1)" stroke-width="1.5"></path><path d="M1255.27 701.85L1406.83 672.77" stroke="rgba(89, 94, 106, 1)" stroke-width="1.5"></path><path d="M1255.27 701.85L1296.88 498.1" stroke="rgba(89, 94, 106, 1)" stroke-width="1.5"></path><path d="M1400.76 -108.34L1400.76 -108.34" stroke="rgba(89, 94, 106, 1)" stroke-width="1.5"></path><path d="M1400.76 -108.34L1443.07 57.6" stroke="rgba(89, 94, 106, 1)" stroke-width="1.5"></path><path d="M1400.76 -108.34L1579.44 -63.42" stroke="rgba(89, 94, 106, 1)" stroke-width="1.5"></path><path d="M1400.76 -108.34L1152.17 -69.38" stroke="rgba(89, 94, 106, 1)" stroke-width="1.5"></path><path d="M1400.76 -108.34L1242.04 91.67" stroke="rgba(89, 94, 106, 1)" stroke-width="1.5"></path><path d="M1443.07 57.6L1443.07 57.6" stroke="rgba(89, 94, 106, 1)" stroke-width="1.5"></path><path d="M1443.07 57.6L1545.99 110.45" stroke="rgba(89, 94, 106, 1)" stroke-width="1.5"></path><path d="M1443.07 57.6L1462.2 198.21" stroke="rgba(89, 94, 106, 1)" stroke-width="1.5"></path><path d="M1443.07 57.6L1579.44 -63.42" stroke="rgba(89, 94, 106, 1)" stroke-width="1.5"></path><path d="M1443.07 57.6L1292.23 -67.99" stroke="rgba(89, 94, 106, 1)" stroke-width="1.5"></path><path d="M1443.07 57.6L1242.04 91.67" stroke="rgba(89, 94, 106, 1)" stroke-width="1.5"></path><path d="M1462.2 198.21L1462.2 198.21" stroke="rgba(89, 94, 106, 1)" stroke-width="1.5"></path><path d="M1462.2 198.21L1545.99 110.45" stroke="rgba(89, 94, 106, 1)" stroke-width="1.5"></path><path d="M1462.2 198.21L1606.18 236.53" stroke="rgba(89, 94, 106, 1)" stroke-width="1.5"></path><path d="M1462.2 198.21L1538.93 363.3" stroke="rgba(89, 94, 106, 1)" stroke-width="1.5"></path><path d="M1462.2 198.21L1397.84 407.88" stroke="rgba(89, 94, 106, 1)" stroke-width="1.5"></path><path d="M1397.84 407.88L1397.84 407.88" stroke="rgba(89, 94, 106, 1)" stroke-width="1.5"></path><path d="M1397.84 407.88L1431.49 535.9" stroke="rgba(89, 94, 106, 1)" stroke-width="1.5"></path><path d="M1397.84 407.88L1538.93 363.3" stroke="rgba(89, 94, 106, 1)" stroke-width="1.5"></path><path d="M1431.49 535.9L1431.49 535.9" stroke="rgba(89, 94, 106, 1)" stroke-width="1.5"></path><path d="M1431.49 535.9L1406.83 672.77" stroke="rgba(89, 94, 106, 1)" stroke-width="1.5"></path><path d="M1431.49 535.9L1595.38 562.05" stroke="rgba(89, 94, 106, 1)" stroke-width="1.5"></path><path d="M1406.83 672.77L1406.83 672.77" stroke="rgba(89, 94, 106, 1)" stroke-width="1.5"></path><path d="M1406.83 672.77L1558.42 704.2" stroke="rgba(89, 94, 106, 1)" stroke-width="1.5"></path><path d="M1579.44 -63.42L1579.44 -63.42" stroke="rgba(89, 94, 106, 1)" stroke-width="1.5"></path><path d="M1579.44 -63.42L1545.99 110.45" stroke="rgba(89, 94, 106, 1)" stroke-width="1.5"></path><path d="M1579.44 -63.42L1462.2 198.21" stroke="rgba(89, 94, 106, 1)" stroke-width="1.5"></path><path d="M1579.44 -63.42L1292.23 -67.99" stroke="rgba(89, 94, 106, 1)" stroke-width="1.5"></path><path d="M1545.99 110.45L1545.99 110.45" stroke="rgba(89, 94, 106, 1)" stroke-width="1.5"></path><path d="M1545.99 110.45L1606.18 236.53" stroke="rgba(89, 94, 106, 1)" stroke-width="1.5"></path><path d="M1545.99 110.45L1538.93 363.3" stroke="rgba(89, 94, 106, 1)" stroke-width="1.5"></path><path d="M1606.18 236.53L1606.18 236.53" stroke="rgba(89, 94, 106, 1)" stroke-width="1.5"></path><path d="M1606.18 236.53L1538.93 363.3" stroke="rgba(89, 94, 106, 1)" stroke-width="1.5"></path><path d="M1606.18 236.53L1443.07 57.6" stroke="rgba(89, 94, 106, 1)" stroke-width="1.5"></path><path d="M1606.18 236.53L1397.84 407.88" stroke="rgba(89, 94, 106, 1)" stroke-width="1.5"></path><path d="M1606.18 236.53L1579.44 -63.42" stroke="rgba(89, 94, 106, 1)" stroke-width="1.5"></path><path d="M1538.93 363.3L1538.93 363.3" stroke="rgba(89, 94, 106, 1)" stroke-width="1.5"></path><path d="M1595.38 562.05L1595.38 562.05" stroke="rgba(89, 94, 106, 1)" stroke-width="1.5"></path><path d="M1595.38 562.05L1558.42 704.2" stroke="rgba(89, 94, 106, 1)" stroke-width="1.5"></path><path d="M1595.38 562.05L1538.93 363.3" stroke="rgba(89, 94, 106, 1)" stroke-width="1.5"></path><path d="M1558.42 704.2L1558.42 704.2" stroke="rgba(89, 94, 106, 1)" stroke-width="1.5"></path><circle r="5" cx="-53.05" cy="396.48" fill="rgba(89, 94, 106, 1)"></circle><circle r="5" cx="-57.74" cy="517.33" fill="rgba(89, 94, 106, 1)"></circle><circle r="5" cx="-96.09" cy="708.92" fill="rgba(89, 94, 106, 1)"></circle><circle r="5" cx="109.13" cy="386.8" fill="rgba(89, 94, 106, 1)"></circle><circle r="5" cx="57.89" cy="517.88" fill="rgba(89, 94, 106, 1)"></circle><circle r="5" cx="71.9" cy="655" fill="rgba(89, 94, 106, 1)"></circle><circle r="5" cx="192.73" cy="393.26" fill="rgba(89, 94, 106, 1)"></circle><circle r="5" cx="253.06" cy="560.97" fill="rgba(89, 94, 106, 1)"></circle><circle r="5" cx="352.19" cy="360.44" fill="rgba(89, 94, 106, 1)"></circle><circle r="5" cx="362.53" cy="554.03" fill="rgba(89, 94, 106, 1)"></circle><circle r="5" cx="342.52" cy="643.21" fill="rgba(89, 94, 106, 1)"></circle><circle r="5" cx="504.23" cy="397.75" fill="rgba(89, 94, 106, 1)"></circle><circle r="5" cx="497.37" cy="521.56" fill="rgba(89, 94, 106, 1)"></circle><circle r="5" cx="498.53" cy="667.84" fill="rgba(89, 94, 106, 1)"></circle><circle r="5" cx="706.22" cy="219.82" fill="rgba(89, 94, 106, 1)"></circle><circle r="5" cx="655.5" cy="409.96" fill="rgba(89, 94, 106, 1)"></circle><circle r="5" cx="681.72" cy="489.27" fill="rgba(89, 94, 106, 1)"></circle><circle r="5" cx="646.95" cy="685.85" fill="rgba(89, 94, 106, 1)"></circle><circle r="5" cx="799.02" cy="227.6" fill="rgba(89, 94, 106, 1)"></circle><circle r="5" cx="819.68" cy="381.24" fill="rgba(89, 94, 106, 1)"></circle><circle r="5" cx="834.08" cy="495.89" fill="rgba(89, 94, 106, 1)"></circle><circle r="5" cx="818.49" cy="669.33" fill="rgba(89, 94, 106, 1)"></circle><circle r="5" cx="976.01" cy="-105.39" fill="rgba(89, 94, 106, 1)"></circle><circle r="5" cx="941.04" cy="81.31" fill="rgba(89, 94, 106, 1)"></circle><circle r="5" cx="973.39" cy="253.15" fill="rgba(89, 94, 106, 1)"></circle><circle r="5" cx="996.82" cy="351.9" fill="rgba(89, 94, 106, 1)"></circle><circle r="5" cx="1007.53" cy="489.98" fill="rgba(89, 94, 106, 1)"></circle><circle r="5" cx="1152.17" cy="-69.38" fill="rgba(89, 94, 106, 1)"></circle><circle r="5" cx="1125.09" cy="93.75" fill="rgba(89, 94, 106, 1)"></circle><circle r="5" cx="1143.57" cy="244.39" fill="rgba(89, 94, 106, 1)"></circle><circle r="5" cx="1125.16" cy="389.64" fill="rgba(89, 94, 106, 1)"></circle><circle r="5" cx="1120.85" cy="675.58" fill="rgba(89, 94, 106, 1)"></circle><circle r="5" cx="1292.23" cy="-67.99" fill="rgba(89, 94, 106, 1)"></circle><circle r="5" cx="1242.04" cy="91.67" fill="rgba(89, 94, 106, 1)"></circle><circle r="5" cx="1282.51" cy="211.85" fill="rgba(89, 94, 106, 1)"></circle><circle r="5" cx="1262.22" cy="409.38" fill="rgba(89, 94, 106, 1)"></circle><circle r="5" cx="1296.88" cy="498.1" fill="rgba(89, 94, 106, 1)"></circle><circle r="5" cx="1255.27" cy="701.85" fill="rgba(89, 94, 106, 1)"></circle><circle r="5" cx="1400.76" cy="-108.34" fill="rgba(89, 94, 106, 1)"></circle><circle r="5" cx="1443.07" cy="57.6" fill="rgba(89, 94, 106, 1)"></circle><circle r="5" cx="1462.2" cy="198.21" fill="rgba(89, 94, 106, 1)"></circle><circle r="5" cx="1397.84" cy="407.88" fill="rgba(89, 94, 106, 1)"></circle><circle r="5" cx="1431.49" cy="535.9" fill="rgba(89, 94, 106, 1)"></circle><circle r="5" cx="1406.83" cy="672.77" fill="rgba(89, 94, 106, 1)"></circle><circle r="5" cx="1579.44" cy="-63.42" fill="rgba(89, 94, 106, 1)"></circle><circle r="5" cx="1545.99" cy="110.45" fill="rgba(89, 94, 106, 1)"></circle><circle r="5" cx="1606.18" cy="236.53" fill="rgba(89, 94, 106, 1)"></circle><circle r="5" cx="1538.93" cy="363.3" fill="rgba(89, 94, 106, 1)"></circle><circle r="5" cx="1595.38" cy="562.05" fill="rgba(89, 94, 106, 1)"></circle><circle r="5" cx="1558.42" cy="704.2" fill="rgba(89, 94, 106, 1)"></circle><path d="M-47.49 653.61L-47.49 653.61" stroke="hsl(228.60000000000002, 15.6%, 34.4%)" stroke-width="1.5"></path><path d="M-47.49 653.61L62.46 642.76" stroke="hsl(228.60000000000002, 15.6%, 34.4%)" stroke-width="1.5"></path><path d="M-47.49 653.61L-100.3 534.89" stroke="hsl(228.60000000000002, 15.6%, 34.4%)" stroke-width="1.5"></path><path d="M1257.49 211.95L1257.49 211.95" stroke="hsl(228.60000000000002, 15.6%, 34.4%)" stroke-width="1.5"></path><path d="M1257.49 211.95L1139.35 254.79" stroke="hsl(228.60000000000002, 15.6%, 34.4%)" stroke-width="1.5"></path><path d="M1257.49 211.95L1259.15 68.28" stroke="hsl(228.60000000000002, 15.6%, 34.4%)" stroke-width="1.5"></path><path d="M1257.49 211.95L1412.08 224.32" stroke="hsl(228.60000000000002, 15.6%, 34.4%)" stroke-width="1.5"></path><path d="M1595.06 211.84L1595.06 211.84" stroke="hsl(228.60000000000002, 15.6%, 34.4%)" stroke-width="1.5"></path><path d="M1595.06 211.84L1590.14 344.3" stroke="hsl(228.60000000000002, 15.6%, 34.4%)" stroke-width="1.5"></path><path d="M1595.06 211.84L1580.32 57.86" stroke="hsl(228.60000000000002, 15.6%, 34.4%)" stroke-width="1.5"></path><path d="M1595.06 211.84L1412.08 224.32" stroke="hsl(228.60000000000002, 15.6%, 34.4%)" stroke-width="1.5"></path><path d="M1595.06 211.84L1443.14 84.62" stroke="hsl(228.60000000000002, 15.6%, 34.4%)" stroke-width="1.5"></path><path d="M1590.14 344.3L1590.14 344.3" stroke="hsl(228.60000000000002, 15.6%, 34.4%)" stroke-width="1.5"></path><path d="M1590.14 344.3L1601.97 495.84" stroke="hsl(228.60000000000002, 15.6%, 34.4%)" stroke-width="1.5"></path><path d="M1590.14 344.3L1412.08 224.32" stroke="hsl(228.60000000000002, 15.6%, 34.4%)" stroke-width="1.5"></path><path d="M1590.14 344.3L1417.52 512.42" stroke="hsl(228.60000000000002, 15.6%, 34.4%)" stroke-width="1.5"></path><path d="M-100.3 534.89L-100.3 534.89" stroke="hsl(228.60000000000002, 15.6%, 34.4%)" stroke-width="1.5"></path><path d="M-100.3 534.89L64.24 549.65" stroke="hsl(228.60000000000002, 15.6%, 34.4%)" stroke-width="1.5"></path><path d="M-100.3 534.89L62.46 642.76" stroke="hsl(228.60000000000002, 15.6%, 34.4%)" stroke-width="1.5"></path><path d="M-100.3 534.89L197.22 647.67" stroke="hsl(228.60000000000002, 15.6%, 34.4%)" stroke-width="1.5"></path><path d="M64.24 549.65L64.24 549.65" stroke="hsl(228.60000000000002, 15.6%, 34.4%)" stroke-width="1.5"></path><path d="M64.24 549.65L62.46 642.76" stroke="hsl(228.60000000000002, 15.6%, 34.4%)" stroke-width="1.5"></path><path d="M64.24 549.65L-47.49 653.61" stroke="hsl(228.60000000000002, 15.6%, 34.4%)" stroke-width="1.5"></path><path d="M62.46 642.76L62.46 642.76" stroke="hsl(228.60000000000002, 15.6%, 34.4%)" stroke-width="1.5"></path><path d="M62.46 642.76L197.22 647.67" stroke="hsl(228.60000000000002, 15.6%, 34.4%)" stroke-width="1.5"></path><path d="M62.46 642.76L245.87 491.54" stroke="hsl(228.60000000000002, 15.6%, 34.4%)" stroke-width="1.5"></path><path d="M245.87 491.54L245.87 491.54" stroke="hsl(228.60000000000002, 15.6%, 34.4%)" stroke-width="1.5"></path><path d="M245.87 491.54L345.85 492.6" stroke="hsl(228.60000000000002, 15.6%, 34.4%)" stroke-width="1.5"></path><path d="M245.87 491.54L197.22 647.67" stroke="hsl(228.60000000000002, 15.6%, 34.4%)" stroke-width="1.5"></path><path d="M197.22 647.67L197.22 647.67" stroke="hsl(228.60000000000002, 15.6%, 34.4%)" stroke-width="1.5"></path><path d="M197.22 647.67L64.24 549.65" stroke="hsl(228.60000000000002, 15.6%, 34.4%)" stroke-width="1.5"></path><path d="M197.22 647.67L345.85 492.6" stroke="hsl(228.60000000000002, 15.6%, 34.4%)" stroke-width="1.5"></path><path d="M197.22 647.67L411.79 688.5" stroke="hsl(228.60000000000002, 15.6%, 34.4%)" stroke-width="1.5"></path><path d="M197.22 647.67L-47.49 653.61" stroke="hsl(228.60000000000002, 15.6%, 34.4%)" stroke-width="1.5"></path><path d="M345.85 492.6L345.85 492.6" stroke="hsl(228.60000000000002, 15.6%, 34.4%)" stroke-width="1.5"></path><path d="M345.85 492.6L533.72 532.19" stroke="hsl(228.60000000000002, 15.6%, 34.4%)" stroke-width="1.5"></path><path d="M411.79 688.5L411.79 688.5" stroke="hsl(228.60000000000002, 15.6%, 34.4%)" stroke-width="1.5"></path><path d="M411.79 688.5L543.99 664.22" stroke="hsl(228.60000000000002, 15.6%, 34.4%)" stroke-width="1.5"></path><path d="M411.79 688.5L533.72 532.19" stroke="hsl(228.60000000000002, 15.6%, 34.4%)" stroke-width="1.5"></path><path d="M411.79 688.5L345.85 492.6" stroke="hsl(228.60000000000002, 15.6%, 34.4%)" stroke-width="1.5"></path><path d="M411.79 688.5L245.87 491.54" stroke="hsl(228.60000000000002, 15.6%, 34.4%)" stroke-width="1.5"></path><path d="M533.72 532.19L533.72 532.19" stroke="hsl(228.60000000000002, 15.6%, 34.4%)" stroke-width="1.5"></path><path d="M533.72 532.19L656.89 556.69" stroke="hsl(228.60000000000002, 15.6%, 34.4%)" stroke-width="1.5"></path><path d="M533.72 532.19L543.99 664.22" stroke="hsl(228.60000000000002, 15.6%, 34.4%)" stroke-width="1.5"></path><path d="M543.99 664.22L543.99 664.22" stroke="hsl(228.60000000000002, 15.6%, 34.4%)" stroke-width="1.5"></path><path d="M543.99 664.22L656.89 556.69" stroke="hsl(228.60000000000002, 15.6%, 34.4%)" stroke-width="1.5"></path><path d="M543.99 664.22L704.77 686.56" stroke="hsl(228.60000000000002, 15.6%, 34.4%)" stroke-width="1.5"></path><path d="M656.89 556.69L656.89 556.69" stroke="hsl(228.60000000000002, 15.6%, 34.4%)" stroke-width="1.5"></path><path d="M656.89 556.69L704.77 686.56" stroke="hsl(228.60000000000002, 15.6%, 34.4%)" stroke-width="1.5"></path><path d="M656.89 556.69L791.96 505.19" stroke="hsl(228.60000000000002, 15.6%, 34.4%)" stroke-width="1.5"></path><path d="M656.89 556.69L829.84 689.19" stroke="hsl(228.60000000000002, 15.6%, 34.4%)" stroke-width="1.5"></path><path d="M656.89 556.69L411.79 688.5" stroke="hsl(228.60000000000002, 15.6%, 34.4%)" stroke-width="1.5"></path><path d="M704.77 686.56L704.77 686.56" stroke="hsl(228.60000000000002, 15.6%, 34.4%)" stroke-width="1.5"></path><path d="M704.77 686.56L829.84 689.19" stroke="hsl(228.60000000000002, 15.6%, 34.4%)" stroke-width="1.5"></path><path d="M704.77 686.56L791.96 505.19" stroke="hsl(228.60000000000002, 15.6%, 34.4%)" stroke-width="1.5"></path><path d="M791.96 505.19L791.96 505.19" stroke="hsl(228.60000000000002, 15.6%, 34.4%)" stroke-width="1.5"></path><path d="M791.96 505.19L829.84 689.19" stroke="hsl(228.60000000000002, 15.6%, 34.4%)" stroke-width="1.5"></path><path d="M791.96 505.19L976.21 546.41" stroke="hsl(228.60000000000002, 15.6%, 34.4%)" stroke-width="1.5"></path><path d="M791.96 505.19L991.68 374.94" stroke="hsl(228.60000000000002, 15.6%, 34.4%)" stroke-width="1.5"></path><path d="M791.96 505.19L533.72 532.19" stroke="hsl(228.60000000000002, 15.6%, 34.4%)" stroke-width="1.5"></path><path d="M829.84 689.19L829.84 689.19" stroke="hsl(228.60000000000002, 15.6%, 34.4%)" stroke-width="1.5"></path><path d="M829.84 689.19L976.16 709.44" stroke="hsl(228.60000000000002, 15.6%, 34.4%)" stroke-width="1.5"></path><path d="M1006.04 221.49L1006.04 221.49" stroke="hsl(228.60000000000002, 15.6%, 34.4%)" stroke-width="1.5"></path><path d="M1006.04 221.49L1139.35 254.79" stroke="hsl(228.60000000000002, 15.6%, 34.4%)" stroke-width="1.5"></path><path d="M1006.04 221.49L991.68 374.94" stroke="hsl(228.60000000000002, 15.6%, 34.4%)" stroke-width="1.5"></path><path d="M991.68 374.94L991.68 374.94" stroke="hsl(228.60000000000002, 15.6%, 34.4%)" stroke-width="1.5"></path><path d="M991.68 374.94L976.21 546.41" stroke="hsl(228.60000000000002, 15.6%, 34.4%)" stroke-width="1.5"></path><path d="M976.21 546.41L976.21 546.41" stroke="hsl(228.60000000000002, 15.6%, 34.4%)" stroke-width="1.5"></path><path d="M976.21 546.41L1111.16 527.79" stroke="hsl(228.60000000000002, 15.6%, 34.4%)" stroke-width="1.5"></path><path d="M976.16 709.44L976.16 709.44" stroke="hsl(228.60000000000002, 15.6%, 34.4%)" stroke-width="1.5"></path><path d="M976.16 709.44L976.21 546.41" stroke="hsl(228.60000000000002, 15.6%, 34.4%)" stroke-width="1.5"></path><path d="M976.16 709.44L1111.16 527.79" stroke="hsl(228.60000000000002, 15.6%, 34.4%)" stroke-width="1.5"></path><path d="M1139.35 254.79L1139.35 254.79" stroke="hsl(228.60000000000002, 15.6%, 34.4%)" stroke-width="1.5"></path><path d="M1139.35 254.79L991.68 374.94" stroke="hsl(228.60000000000002, 15.6%, 34.4%)" stroke-width="1.5"></path><path d="M1139.35 254.79L1294.7 399.49" stroke="hsl(228.60000000000002, 15.6%, 34.4%)" stroke-width="1.5"></path><path d="M1139.35 254.79L1259.15 68.28" stroke="hsl(228.60000000000002, 15.6%, 34.4%)" stroke-width="1.5"></path><path d="M1111.16 527.79L1111.16 527.79" stroke="hsl(228.60000000000002, 15.6%, 34.4%)" stroke-width="1.5"></path><path d="M1111.16 527.79L1254.87 528.85" stroke="hsl(228.60000000000002, 15.6%, 34.4%)" stroke-width="1.5"></path><path d="M1111.16 527.79L991.68 374.94" stroke="hsl(228.60000000000002, 15.6%, 34.4%)" stroke-width="1.5"></path><path d="M1111.16 527.79L1292.44 643.3" stroke="hsl(228.60000000000002, 15.6%, 34.4%)" stroke-width="1.5"></path><path d="M1111.16 527.79L1294.7 399.49" stroke="hsl(228.60000000000002, 15.6%, 34.4%)" stroke-width="1.5"></path><path d="M1259.15 68.28L1259.15 68.28" stroke="hsl(228.60000000000002, 15.6%, 34.4%)" stroke-width="1.5"></path><path d="M1259.15 68.28L1443.14 84.62" stroke="hsl(228.60000000000002, 15.6%, 34.4%)" stroke-width="1.5"></path><path d="M1259.15 68.28L1409.84 -45.38" stroke="hsl(228.60000000000002, 15.6%, 34.4%)" stroke-width="1.5"></path><path d="M1259.15 68.28L1412.08 224.32" stroke="hsl(228.60000000000002, 15.6%, 34.4%)" stroke-width="1.5"></path><path d="M1294.7 399.49L1294.7 399.49" stroke="hsl(228.60000000000002, 15.6%, 34.4%)" stroke-width="1.5"></path><path d="M1294.7 399.49L1254.87 528.85" stroke="hsl(228.60000000000002, 15.6%, 34.4%)" stroke-width="1.5"></path><path d="M1294.7 399.49L1417.52 512.42" stroke="hsl(228.60000000000002, 15.6%, 34.4%)" stroke-width="1.5"></path><path d="M1294.7 399.49L1257.49 211.95" stroke="hsl(228.60000000000002, 15.6%, 34.4%)" stroke-width="1.5"></path><path d="M1294.7 399.49L1412.08 224.32" stroke="hsl(228.60000000000002, 15.6%, 34.4%)" stroke-width="1.5"></path><path d="M1254.87 528.85L1254.87 528.85" stroke="hsl(228.60000000000002, 15.6%, 34.4%)" stroke-width="1.5"></path><path d="M1254.87 528.85L1292.44 643.3" stroke="hsl(228.60000000000002, 15.6%, 34.4%)" stroke-width="1.5"></path><path d="M1254.87 528.85L1417.52 512.42" stroke="hsl(228.60000000000002, 15.6%, 34.4%)" stroke-width="1.5"></path><path d="M1254.87 528.85L976.21 546.41" stroke="hsl(228.60000000000002, 15.6%, 34.4%)" stroke-width="1.5"></path><path d="M1292.44 643.3L1292.44 643.3" stroke="hsl(228.60000000000002, 15.6%, 34.4%)" stroke-width="1.5"></path><path d="M1292.44 643.3L1417.52 512.42" stroke="hsl(228.60000000000002, 15.6%, 34.4%)" stroke-width="1.5"></path><path d="M1409.84 -45.38L1409.84 -45.38" stroke="hsl(228.60000000000002, 15.6%, 34.4%)" stroke-width="1.5"></path><path d="M1409.84 -45.38L1443.14 84.62" stroke="hsl(228.60000000000002, 15.6%, 34.4%)" stroke-width="1.5"></path><path d="M1409.84 -45.38L1567.98 -48.66" stroke="hsl(228.60000000000002, 15.6%, 34.4%)" stroke-width="1.5"></path><path d="M1443.14 84.62L1443.14 84.62" stroke="hsl(228.60000000000002, 15.6%, 34.4%)" stroke-width="1.5"></path><path d="M1443.14 84.62L1580.32 57.86" stroke="hsl(228.60000000000002, 15.6%, 34.4%)" stroke-width="1.5"></path><path d="M1412.08 224.32L1412.08 224.32" stroke="hsl(228.60000000000002, 15.6%, 34.4%)" stroke-width="1.5"></path><path d="M1412.08 224.32L1443.14 84.62" stroke="hsl(228.60000000000002, 15.6%, 34.4%)" stroke-width="1.5"></path><path d="M1417.52 512.42L1417.52 512.42" stroke="hsl(228.60000000000002, 15.6%, 34.4%)" stroke-width="1.5"></path><path d="M1417.52 512.42L1601.97 495.84" stroke="hsl(228.60000000000002, 15.6%, 34.4%)" stroke-width="1.5"></path><path d="M1567.98 -48.66L1567.98 -48.66" stroke="hsl(228.60000000000002, 15.6%, 34.4%)" stroke-width="1.5"></path><path d="M1567.98 -48.66L1580.32 57.86" stroke="hsl(228.60000000000002, 15.6%, 34.4%)" stroke-width="1.5"></path><path d="M1567.98 -48.66L1443.14 84.62" stroke="hsl(228.60000000000002, 15.6%, 34.4%)" stroke-width="1.5"></path><path d="M1567.98 -48.66L1595.06 211.84" stroke="hsl(228.60000000000002, 15.6%, 34.4%)" stroke-width="1.5"></path><path d="M1567.98 -48.66L1412.08 224.32" stroke="hsl(228.60000000000002, 15.6%, 34.4%)" stroke-width="1.5"></path><path d="M1567.98 -48.66L1259.15 68.28" stroke="hsl(228.60000000000002, 15.6%, 34.4%)" stroke-width="1.5"></path><path d="M1580.32 57.86L1580.32 57.86" stroke="hsl(228.60000000000002, 15.6%, 34.4%)" stroke-width="1.5"></path><path d="M1601.97 495.84L1601.97 495.84" stroke="hsl(228.60000000000002, 15.6%, 34.4%)" stroke-width="1.5"></path><path d="M1601.97 495.84L1542.53 676.04" stroke="hsl(228.60000000000002, 15.6%, 34.4%)" stroke-width="1.5"></path><path d="M1601.97 495.84L1595.06 211.84" stroke="hsl(228.60000000000002, 15.6%, 34.4%)" stroke-width="1.5"></path><path d="M1542.53 676.04L1542.53 676.04" stroke="hsl(228.60000000000002, 15.6%, 34.4%)" stroke-width="1.5"></path><path d="M1542.53 676.04L1417.52 512.42" stroke="hsl(228.60000000000002, 15.6%, 34.4%)" stroke-width="1.5"></path><path d="M1542.53 676.04L1292.44 643.3" stroke="hsl(228.60000000000002, 15.6%, 34.4%)" stroke-width="1.5"></path><path d="M1542.53 676.04L1254.87 528.85" stroke="hsl(228.60000000000002, 15.6%, 34.4%)" stroke-width="1.5"></path><path d="M1542.53 676.04L1590.14 344.3" stroke="hsl(228.60000000000002, 15.6%, 34.4%)" stroke-width="1.5"></path><path d="M1542.53 676.04L1294.7 399.49" stroke="hsl(228.60000000000002, 15.6%, 34.4%)" stroke-width="1.5"></path><circle r="25" cx="-47.49" cy="653.61" fill="url(#SvgjsRadialGradient1328)"></circle><circle r="25" cx="1257.49" cy="211.95" fill="url(#SvgjsRadialGradient1328)"></circle><circle r="25" cx="1595.06" cy="211.84" fill="url(#SvgjsRadialGradient1328)"></circle><circle r="25" cx="1590.14" cy="344.3" fill="url(#SvgjsRadialGradient1328)"></circle><circle r="5" cx="-100.3" cy="534.89" fill="#9c9ea7"></circle><circle r="5" cx="64.24" cy="549.65" fill="#9c9ea7"></circle><circle r="5" cx="62.46" cy="642.76" fill="#9c9ea7"></circle><circle r="5" cx="245.87" cy="491.54" fill="#9c9ea7"></circle><circle r="5" cx="197.22" cy="647.67" fill="#9c9ea7"></circle><circle r="5" cx="345.85" cy="492.6" fill="#9c9ea7"></circle><circle r="5" cx="411.79" cy="688.5" fill="#9c9ea7"></circle><circle r="5" cx="533.72" cy="532.19" fill="#9c9ea7"></circle><circle r="5" cx="543.99" cy="664.22" fill="#9c9ea7"></circle><circle r="5" cx="656.89" cy="556.69" fill="#9c9ea7"></circle><circle r="5" cx="704.77" cy="686.56" fill="#9c9ea7"></circle><circle r="5" cx="791.96" cy="505.19" fill="#9c9ea7"></circle><circle r="5" cx="829.84" cy="689.19" fill="#9c9ea7"></circle><circle r="5" cx="1006.04" cy="221.49" fill="#9c9ea7"></circle><circle r="5" cx="991.68" cy="374.94" fill="#9c9ea7"></circle><circle r="5" cx="976.21" cy="546.41" fill="#9c9ea7"></circle><circle r="5" cx="976.16" cy="709.44" fill="#9c9ea7"></circle><circle r="5" cx="1139.35" cy="254.79" fill="#9c9ea7"></circle><circle r="5" cx="1111.16" cy="527.79" fill="#9c9ea7"></circle><circle r="5" cx="1259.15" cy="68.28" fill="#9c9ea7"></circle><circle r="5" cx="1294.7" cy="399.49" fill="#9c9ea7"></circle><circle r="5" cx="1254.87" cy="528.85" fill="#9c9ea7"></circle><circle r="5" cx="1292.44" cy="643.3" fill="#9c9ea7"></circle><circle r="5" cx="1409.84" cy="-45.38" fill="#9c9ea7"></circle><circle r="5" cx="1443.14" cy="84.62" fill="#9c9ea7"></circle><circle r="5" cx="1412.08" cy="224.32" fill="#9c9ea7"></circle><circle r="5" cx="1417.52" cy="512.42" fill="#9c9ea7"></circle><circle r="5" cx="1567.98" cy="-48.66" fill="#9c9ea7"></circle><circle r="5" cx="1580.32" cy="57.86" fill="#9c9ea7"></circle><circle r="5" cx="1601.97" cy="495.84" fill="#9c9ea7"></circle><circle r="5" cx="1542.53" cy="676.04" fill="#9c9ea7"></circle></g><defs><mask id="SvgjsMask1326"><rect width="1440" height="560" fill="#ffffff"></rect></mask><linearGradient x1="15.28%" y1="-39.29%" x2="84.72%" y2="139.29%" gradientUnits="userSpaceOnUse" id="SvgjsLinearGradient1327"><stop stop-color="rgba(31, 31, 31, 1)" offset="0.65"></stop><stop stop-color="rgba(0, 0, 0, 1)" offset="1"></stop></linearGradient><radialGradient id="SvgjsRadialGradient1328"><stop stop-color="#ffffff" offset="0.1"></stop><stop stop-color="rgba(57, 61, 78, 1)" offset="0.2"></stop><stop stop-color="rgba(57, 61, 78, 0)" offset="1"></stop></radialGradient></defs></svg>