<svg xmlns="http://www.w3.org/2000/svg" version="1.1" xmlns:xlink="http://www.w3.org/1999/xlink" xmlns:svgjs="http://svgjs.com/svgjs" width="1440" height="560" preserveAspectRatio="none" viewBox="0 0 1440 560"><g mask="url(&quot;#SvgjsMask1010&quot;)" fill="none"><rect width="1440" height="560" x="0" y="0" fill="rgba(217, 119, 6, 1)"></rect><path d="M1046.02 151.61a10.87 10.87 0 1 0-0.61-21.73z" fill="rgba(255, 230, 0, 1)"></path><path d="M347.26 165.78 a19.28 19.28 0 1 0 38.56 0 a19.28 19.28 0 1 0 -38.56 0z" fill="rgba(255, 150, 0, 1)"></path><path d="M1132.06 181.47 a30.74 30.74 0 1 0 61.48 0 a30.74 30.74 0 1 0 -61.48 0z" fill="rgba(255, 230, 0, 1)"></path><path d="M1188.99 222.48a0.21 0.21 0 1 0-0.42 0.03z" fill="rgba(255, 230, 0, 1)"></path><path d="M106.81 127.04a4.78 4.78 0 1 0-3.19 9.01z" stroke="rgba(255, 150, 0, 1)"></path><path d="M1338.95 22.16L1372.57 22.16L1372.57 55.78L1338.95 55.78z" stroke="rgba(255, 230, 0, 1)"></path><path d="M575.01 381.94L601.06 381.94L601.06 407.99L575.01 407.99z" stroke="rgba(255, 150, 0, 1)"></path><path d="M1009.59 4.94L1048.65 4.94L1048.65 44L1009.59 44z" fill="rgba(255, 150, 0, 1)"></path><path d="M553.69 303.9L555.67 303.9L555.67 305.88L553.69 305.88z" fill="rgba(255, 230, 0, 1)"></path><path d="M1268.13 152.07L1279.15 152.07L1279.15 155.28L1268.13 155.28z" stroke="rgba(255, 230, 0, 1)"></path><path d="M584.58 433.27L626.72 433.27L626.72 447.98L584.58 447.98z" fill="rgba(255, 150, 0, 1)"></path><path d="M1291.91 191.1a50 50 0 1 0 77.79 62.84z" fill="rgba(255, 230, 0, 1)"></path><path d="M111.1 303.57L120.57 303.57L120.57 313.04L111.1 313.04z" stroke="rgba(255, 150, 0, 1)"></path><path d="M1135.15 456.05L1180.06 456.05L1180.06 460.78L1135.15 460.78z" fill="rgba(255, 150, 0, 1)"></path><path d="M521.51 305.48L559.69 305.48L559.69 321.64L521.51 321.64z" stroke="rgba(255, 230, 0, 1)"></path><path d="M1005.64 276.21L1050.08 276.21L1050.08 320.65L1005.64 320.65z" stroke="rgba(255, 150, 0, 1)"></path><path d="M1180.9 554.57 a20.41 20.41 0 1 0 40.82 0 a20.41 20.41 0 1 0 -40.82 0z" stroke="rgba(255, 230, 0, 1)"></path><path d="M544.49 315.99L547.74 315.99L547.74 319.24L544.49 319.24z" fill="rgba(255, 150, 0, 1)"></path><path d="M506.94 321.51 a40.08 40.08 0 1 0 80.16 0 a40.08 40.08 0 1 0 -80.16 0z" fill="rgba(255, 230, 0, 1)"></path><path d="M1018.63 446.21 a21.36 21.36 0 1 0 42.72 0 a21.36 21.36 0 1 0 -42.72 0z" fill="rgba(255, 230, 0, 1)"></path><path d="M888.81 515.5L898.42 515.5L898.42 559.06L888.81 559.06z" fill="rgba(255, 230, 0, 1)"></path><path d="M593.47 340.81 a47.17 47.17 0 1 0 94.34 0 a47.17 47.17 0 1 0 -94.34 0z" stroke="rgba(255, 150, 0, 1)"></path><path d="M904.38 369.94 a12.05 12.05 0 1 0 24.1 0 a12.05 12.05 0 1 0 -24.1 0z" stroke="rgba(255, 230, 0, 1)"></path><path d="M466.38 92.58L494.21 92.58L494.21 120.41L466.38 120.41z" fill="rgba(255, 150, 0, 1)"></path><path d="M1045.11 227.81a37.65 37.65 0 1 0-75.26 2.64z" fill="rgba(255, 230, 0, 1)"></path><path d="M810.46 227.9L828.81 227.9L828.81 246.25L810.46 246.25z" stroke="rgba(255, 150, 0, 1)"></path><path d="M1116.41 508.39L1132.59 508.39L1132.59 524.57L1116.41 524.57z" stroke="rgba(255, 150, 0, 1)"></path><path d="M376.5 85.49L431.96 85.49L431.96 137.88L376.5 137.88z" stroke="rgba(255, 230, 0, 1)"></path><path d="M1210.31 57.76L1222.08 57.76L1222.08 106.9L1210.31 106.9z" fill="rgba(255, 150, 0, 1)"></path><path d="M934.88 394.49a26.69 26.69 0 1 0 52.4 10.22z" fill="rgba(255, 150, 0, 1)"></path><path d="M295.63 70.72L321.57 70.72L321.57 91.73L295.63 91.73z" fill="rgba(255, 230, 0, 1)"></path><path d="M572.86 406.08L628.56 406.08L628.56 454.62L572.86 454.62z" fill="rgba(255, 150, 0, 1)"></path><path d="M408.69 148.08 a4.09 4.09 0 1 0 8.18 0 a4.09 4.09 0 1 0 -8.18 0z" fill="rgba(255, 150, 0, 1)"></path></g><defs><mask id="SvgjsMask1010"><rect width="1440" height="560" fill="#ffffff"></rect></mask></defs></svg>