<svg xmlns="http://www.w3.org/2000/svg" version="1.1" xmlns:xlink="http://www.w3.org/1999/xlink" xmlns:svgjs="http://svgjs.com/svgjs" width="1440" height="560" preserveAspectRatio="none" viewBox="0 0 1440 560"><g mask="url(&quot;#SvgjsMask1003&quot;)" fill="none"><rect width="1440" height="560" x="0" y="0" fill="rgba(215, 135, 5, 1)"></rect><path d="M0,308.653C61.46,307.742,120.503,298.9,177.815,276.685C246.804,249.945,336.517,234.997,365.577,166.953C394.728,98.695,336.144,25.908,315.344,-45.34C297.738,-105.65,284.644,-164.913,252.871,-219.114C215.18,-283.411,185.404,-366.901,114.109,-388.621C42.84,-410.333,-29.927,-360.613,-95.501,-325.247C-150.799,-295.424,-189.829,-247.566,-232.66,-201.601C-277.238,-153.761,-344.501,-115.552,-351.483,-50.536C-358.459,14.427,-297.198,63.97,-267.424,122.128C-239.263,177.135,-231.921,246.657,-181.236,282.009C-130.118,317.663,-62.317,309.577,0,308.653" fill="#b06f04"></path><path d="M1440 1051.3029999999999C1547.555 1044.1480000000001 1655.421 1089.549 1756.824 1052.988 1871.586 1011.61 1974.068 936.425 2041.1770000000001 834.548 2114.448 723.316 2160.378 590.788 2148.688 458.106 2136.696 321.999 2091.249 168.99 1976.063 95.49900000000002 1861.607 22.474000000000046 1712.43 103.14699999999999 1577.0149999999999 93.36900000000003 1477.975 86.21699999999998 1386.984 29.52800000000002 1289.0430000000001 45.888000000000034 1184.16 63.408000000000015 1094.821 122.981 1010.659 187.974 909.288 266.256 761.44 333.31399999999996 751.485 461.006 741.403 590.327 903.111 662.907 964.736 777.046 1020.5699999999999 880.4590000000001 993.086 1038.283 1094.877 1097.022 1197.466 1156.222 1321.816 1059.165 1440 1051.3029999999999" fill="#f99e0a"></path></g><defs><mask id="SvgjsMask1003"><rect width="1440" height="560" fill="#ffffff"></rect></mask></defs></svg>