<svg id="Capa_1" enable-background="new 0 0 512 512" height="512" viewBox="0 0 512 512" width="512" xmlns="http://www.w3.org/2000/svg"><g><path d="m361.472 154.468h-324.91c-20.193 0-36.562 16.369-36.562 36.562v17.57l14.089 22.986-14.089 26.703v135.557c0 20.193 16.369 36.562 36.562 36.562h363.593c20.193 0 36.562-16.369 36.562-36.562v-135.557z" fill="#ffc250"/><path d="m395.51 219.889v94.201c0 52.861-42.852 95.714-95.714 95.714h-296.138c5.926 12.196 18.433 20.603 32.904 20.603h363.593c20.193 0 36.562-16.369 36.562-36.562v-135.556z" fill="#ebb044"/><path d="m0 208.6h436.717v49.689h-436.717z" fill="#407093"/><path d="m395.51 219.889v38.4h41.207v-49.689c-.005 0-41.207 11.289-41.207 11.289z" fill="#365e7d"/><g fill="#407093"><path d="m208.426 355.31h-31.795c-4.267 0-7.726-3.459-7.726-7.726 0-4.268 3.459-7.726 7.726-7.726h31.795c4.267 0 7.726 3.459 7.726 7.726s-3.459 7.726-7.726 7.726z"/><path d="m266.657 355.31h-31.794c-4.267 0-7.726-3.459-7.726-7.726 0-4.268 3.459-7.726 7.726-7.726h31.794c4.267 0 7.726 3.459 7.726 7.726.001 4.267-3.458 7.726-7.726 7.726z"/><path d="m324.89 355.31h-31.795c-4.267 0-7.726-3.459-7.726-7.726 0-4.268 3.459-7.726 7.726-7.726h31.795c4.267 0 7.726 3.459 7.726 7.726s-3.459 7.726-7.726 7.726z"/></g><path d="m398.641 360.971h-45.193c-.587 0-1.063-.476-1.063-1.063v-24.648c0-.587.476-1.063 1.063-1.063h45.193c.587 0 1.063.476 1.063 1.063v24.648c.001.586-.475 1.063-1.063 1.063z" fill="#f6f9f9"/><path d="m398.641 334.196h-5.247c-2.037 9.527-5.491 18.529-10.132 26.774h15.38c.587 0 1.063-.476 1.063-1.063v-24.647c0-.588-.476-1.064-1.064-1.064z" fill="#e7ecf1"/><circle cx="436.717" cy="156.875" fill="#78c2a4" r="75.283"/><path d="m448.153 82.456c13.97 13.667 22.64 32.729 22.64 53.816 0 41.578-33.705 75.283-75.283 75.283-3.888 0-7.707-.295-11.436-.863 13.574 13.28 32.153 21.467 52.643 21.467 41.578 0 75.283-33.705 75.283-75.283 0-37.69-27.697-68.911-63.847-74.42z" fill="#66b394"/><path d="m463.272 123.972-36.938 36.938c-.824.824-2.161.824-2.985 0l-13.187-13.187c-.824-.824-2.161-.824-2.985 0l-16.737 16.736c-.824.824-.824 2.161 0 2.985l32.908 32.908c.824.824 2.161.824 2.985 0l56.66-56.66c.824-.824.824-2.161 0-2.985l-16.736-16.736c-.824-.823-2.161-.823-2.985.001z" fill="#f6f9f9"/><path d="m470.35 128.066c.292 2.695.442 5.433.442 8.206 0 8.131-1.289 15.961-3.674 23.296l15.874-15.874c.824-.824.824-2.16 0-2.985z" fill="#e7ecf1"/></g></svg>