<?xml version="1.0" encoding="iso-8859-1"?>
<!-- Generator: Adobe Illustrator 19.0.0, SVG Export Plug-In . SVG Version: 6.00 Build 0)  -->
<svg version="1.1" id="Capa_1" xmlns="http://www.w3.org/2000/svg" xmlns:xlink="http://www.w3.org/1999/xlink" x="0px" y="0px"
	 viewBox="0 0 512.002 512.002" style="enable-background:new 0 0 512.002 512.002;" xml:space="preserve">
<g>
	<g>
		<path d="M23.671,174.418c-5.28-1.634-10.877,1.32-12.51,6.596l-0.113,0.369c-1.633,5.276,1.32,10.877,6.596,12.51
			c0.985,0.305,1.98,0.45,2.96,0.45c4.269,0,8.222-2.755,9.55-7.046l0.113-0.369C31.9,181.652,28.947,176.051,23.671,174.418z"/>
	</g>
</g>
<g>
	<g>
		<path d="M350.121,483.574c-1.903-5.185-7.65-7.846-12.832-5.943c-25.989,9.535-53.339,14.37-81.289,14.37
			c-6.476,0-12.888-0.273-19.234-0.788l27.103-34.566c1.381-1.76,2.131-3.933,2.131-6.17v-31.262l22.929-22.929H305
			c5.522,0,10-4.478,10-10c0-5.522-4.478-10-10-10h-20.214c-2.652,0-5.195,1.054-7.071,2.929l-28.786,28.786
			c-1.875,1.876-2.929,4.419-2.929,7.071v31.951l-30.819,39.307c-0.476,0.607-0.862,1.255-1.177,1.924
			c-34.622-6.244-66.643-20.065-94.279-39.679l15.627-39.478c1.758-4.439,2.648-9.111,2.648-13.886v-41.486
			c0-20.8-16.924-37.724-37.726-37.724c-4.239,0-8.348-1.52-11.567-4.279l-5.635-4.83c-2.975-2.549-3.795-6.76-1.995-10.24
			l5.757-11.129c2.398-4.638,3.666-9.849,3.666-15.069v-11.651c0-7.059,5.742-12.801,12.801-12.801H180c5.522,0,10-4.478,10-10
			c0-5.522-4.478-10-10-10h-76.699c-18.086-0.001-32.801,14.713-32.801,32.8v11.651c0,2.037-0.495,4.071-1.432,5.882l-5.755,11.128
			c-6.085,11.763-3.312,25.997,6.743,34.614l5.635,4.83c6.843,5.864,15.573,9.094,24.583,9.094c9.773,0,17.726,7.951,17.726,17.726
			v41.486c0,2.243-0.419,4.438-1.244,6.524l-13.472,34.035C52.364,392.45,20,327.939,20,256.001c0-11.575,0.845-23.202,2.512-34.559
			c0.801-5.465-2.979-10.545-8.442-11.347c-5.472-0.793-10.546,2.978-11.347,8.442C0.916,230.854,0,243.458,0,256.001
			c0,68.38,26.629,132.667,74.98,181.02c48.353,48.351,112.64,74.98,181.02,74.98c30.308,0,59.975-5.247,88.178-15.595
			C349.363,494.504,352.024,488.759,350.121,483.574z"/>
	</g>
</g>
<g>
	<g>
		<path d="M82.333,45.585c-20.953,0-38,17.047-38,38s17.047,38,38,38s38-17.047,38-38S103.286,45.585,82.333,45.585z
			 M82.333,101.585c-9.925,0-18-8.075-18-18s8.075-18,18-18s18,8.075,18,18S92.258,101.585,82.333,101.585z"/>
	</g>
</g>
<g>
	<g>
		<path d="M251.92,156.893l-18.926-24.533c-6.937-8.991-17.858-14.359-29.214-14.359h-47.223c5.282-11.039,8.11-23.208,8.11-35.57
			c0-45.398-36.935-82.333-82.334-82.333C36.935,0.098,0,37.033,0,82.431c0,18.797,6.48,37.125,18.267,51.715
			c0.111,0.162,0.228,0.322,0.351,0.479l55.832,71.529c1.896,2.428,4.804,3.847,7.884,3.847c3.08,0,5.988-1.42,7.883-3.849
			l53.172-68.151h60.392c5.2,0,10.2,2.458,13.376,6.575l18.926,24.533c1.971,2.554,4.931,3.893,7.925,3.893
			c2.133,0,4.282-0.68,6.102-2.083C254.483,167.545,255.293,161.266,251.92,156.893z M131.213,121.09
			c-0.468,0.488-0.884,1.025-1.246,1.6l-47.636,61.057l-47.426-60.759c-0.2-0.305-0.418-0.601-0.653-0.886
			C25.062,110.978,20,96.889,20,82.431c0-34.37,27.963-62.333,62.333-62.333c34.371,0,62.334,27.963,62.334,62.333
			C144.667,96.443,139.888,110.131,131.213,121.09z"/>
	</g>
</g>
<g>
	<g>
		<path d="M504.671,369.61l-16.939-4.694C503.831,330.725,512,294.086,512,256.001c0-68.38-26.629-132.668-74.98-181.02
			C388.667,26.63,324.38,0.001,256,0.001c-33.725,0-66.505,6.458-97.431,19.195c-5.106,2.103-7.541,7.947-5.438,13.055
			c2.104,5.105,7.946,7.545,13.055,5.438C194.684,25.952,224.901,20.001,256,20.001c24.134,0,47.43,3.649,69.375,10.411
			l-32.272,68.715c-6.626,14.105-3.674,30.987,7.346,42.007l12.669,12.669c5.422,5.421,12.63,8.407,20.297,8.407h8.048
			c2.324,0,4.51,0.905,6.153,2.549l27.076,27.075l-22.767,22.768c-5.422,5.421-8.408,12.629-8.408,20.296
			c0,7.667,2.985,14.875,8.407,20.297c2.298,2.297,3.122,5.651,2.151,8.752l-3.311,10.581c-3.43,10.961,0.308,23.125,9.301,30.27
			l19.592,15.566c4.93,3.916,11.112,6.073,17.409,6.073h40.959c4.211,0,8.358,1.428,11.678,4.021l23.37,18.259
			c-1.178,2.75-2.391,5.49-3.678,8.207c-0.413,0.872-0.681,1.775-0.829,2.682L334.86,322.554c-3.474-0.961-7.193,0.019-9.742,2.565
			c-2.548,2.548-3.527,6.27-2.565,9.742l47.056,169.811c1.098,3.962,4.509,6.848,8.598,7.275c0.35,0.036,0.696,0.054,1.042,0.054
			c3.703,0,7.143-2.058,8.874-5.396l40.468-78.015l78.015-40.468c3.649-1.894,5.769-5.827,5.342-9.916
			C511.519,374.118,508.633,370.707,504.671,369.61z M423.066,408.925l-26.124-26.124c-3.906-3.904-10.236-3.904-14.143,0
			c-3.905,3.905-3.905,10.237,0,14.143l26.124,26.124l-26.838,51.739l-35.542-128.262l128.262,35.542L423.066,408.925z
			 M462.016,314.697c-6.818-5.326-15.339-8.26-23.99-8.26h-40.959c-1.797,0-3.563-0.615-4.969-1.732l-19.591-15.565
			c-2.566-2.04-3.633-5.511-2.654-8.639l3.311-10.582c3.2-10.228,0.48-21.289-7.097-28.866c-1.645-1.644-2.55-3.829-2.55-6.154
			c0-2.324,0.905-4.51,2.55-6.153l29.838-29.839c3.905-3.905,3.905-10.237,0-14.143l-34.146-34.146
			c-5.421-5.421-12.629-8.406-20.296-8.406h-8.048c-2.324,0-4.511-0.905-6.154-2.55l-12.669-12.669
			c-5.079-5.079-6.44-12.859-3.386-19.361l33.099-70.474C430.813,72.19,492,157.078,492,256.001
			c0,25.174-3.887,49.653-11.541,73.106L462.016,314.697z"/>
	</g>
</g>
<g>
	<g>
		<path d="M247.079,233.376c-5.522,0-10,4.478-10,10v5c0,5.523,4.478,10,10,10c5.522,0,10-4.478,10-10v-5
			C257.079,237.854,252.601,233.376,247.079,233.376z"/>
	</g>
</g>
<g>
	<g>
		<path d="M247.079,278.376c-5.522,0-10,4.478-10,10v5c0,5.522,4.478,10,10,10c5.522,0,10-4.478,10-10v-5
			C257.079,282.854,252.601,278.376,247.079,278.376z"/>
	</g>
</g>
<g>
	<g>
		<path d="M260.379,315.076h-5c-5.522,0-10,4.478-10,10c0,5.522,4.477,10,10,10h5c5.522,0,10-4.478,10-10
			C270.379,319.554,265.901,315.076,260.379,315.076z"/>
	</g>
</g>
<g>
	<g>
		<path d="M205.333,190.122h-5c-5.522,0-10,4.478-10,10c0,5.522,4.478,10,10,10h5c5.522,0,10-4.478,10-10
			C215.333,194.6,210.855,190.122,205.333,190.122z"/>
	</g>
</g>
<g>
	<g>
		<path d="M115.333,190.122h-5c-5.522,0-10,4.478-10,10c0,5.522,4.478,10,10,10h5c5.522,0,10-4.478,10-10
			C125.333,194.6,120.855,190.122,115.333,190.122z"/>
	</g>
</g>
<g>
	<g>
		<path d="M247.079,190.122h-1.746c-5.522,0-10,4.478-10,10c0,2.374,0.827,4.555,2.209,6.27c1.278,4.049,5.065,6.984,9.537,6.984
			c5.522,0,10-4.478,10-10v-3.254C257.079,194.6,252.602,190.122,247.079,190.122z"/>
	</g>
</g>
<g>
	<g>
		<path d="M305.379,315.076h-5c-5.522,0-10,4.478-10,10c0,5.522,4.478,10,10,10h5c5.522,0,10-4.478,10-10
			C315.379,319.554,310.901,315.076,305.379,315.076z"/>
	</g>
</g>
<g>
	<g>
		<path d="M160.333,190.122h-5c-5.522,0-10,4.478-10,10c0,5.522,4.478,10,10,10h5c5.522,0,10-4.478,10-10
			C170.333,194.6,165.855,190.122,160.333,190.122z"/>
	</g>
</g>
<g>
	<g>
		<path d="M421.454,125.99c-3.415-4.341-9.7-5.09-14.042-1.675c-4.341,3.415-5.091,9.702-1.675,14.042
			c26.612,33.821,40.679,74.503,40.679,117.645c0,5.522,4.478,10,10,10c5.522,0,10-4.478,10-10
			C466.416,208.328,450.868,163.371,421.454,125.99z"/>
	</g>
</g>
<g>
	<g>
		<path d="M397.721,100.468l-0.213-0.194c-4.093-3.712-10.397-3.384-14.105,0.707c-3.711,4.091-3.383,10.432,0.708,14.143
			c1.926,1.788,4.367,2.672,6.803,2.672c2.684,0,5.359-1.074,7.33-3.195C402.002,110.554,401.767,104.226,397.721,100.468z"/>
	</g>
</g>
<g>
</g>
<g>
</g>
<g>
</g>
<g>
</g>
<g>
</g>
<g>
</g>
<g>
</g>
<g>
</g>
<g>
</g>
<g>
</g>
<g>
</g>
<g>
</g>
<g>
</g>
<g>
</g>
<g>
</g>
</svg>
