<svg id="_x31__px" height="512" viewBox="0 0 24 24" width="512" xmlns="http://www.w3.org/2000/svg"><path d="m21.5 24h-19c-1.379 0-2.5-1.122-2.5-2.5v-17c0-1.378 1.121-2.5 2.5-2.5h10.12c.276 0 .5.224.5.5s-.224.5-.5.5h-10.12c-.827 0-1.5.673-1.5 1.5v17c0 .827.673 1.5 1.5 1.5h19c.827 0 1.5-.673 1.5-1.5v-15.15c0-.276.224-.5.5-.5s.5.224.5.5v15.15c0 1.378-1.121 2.5-2.5 2.5z"/><path d="m15.72 7h-15.22c-.276 0-.5-.224-.5-.5s.224-.5.5-.5h15.22c.276 0 .5.224.5.5s-.224.5-.5.5z"/><path d="m19.5 18h-2c-.827 0-1.5-.673-1.5-1.5v-3c0-.827.673-1.5 1.5-1.5h2c.276 0 .5.224.5.5s-.224.5-.5.5h-2c-.275 0-.5.224-.5.5v3c0 .276.225.5.5.5h2c.276 0 .5.224.5.5s-.224.5-.5.5z"/><path d="m10.5 18c-.276 0-.5-.224-.5-.5v-4c0-.827.673-1.5 1.5-1.5h2c.276 0 .5.224.5.5s-.224.5-.5.5h-2c-.275 0-.5.224-.5.5v4c0 .276-.224.5-.5.5z"/><path d="m13.5 16h-3c-.276 0-.5-.224-.5-.5s.224-.5.5-.5h3c.276 0 .5.224.5.5s-.224.5-.5.5z"/><path d="m7.5 18c-.173 0-.337-.089-.429-.243l-2.071-3.452v3.195c0 .276-.224.5-.5.5s-.5-.224-.5-.5v-5c0-.225.15-.422.366-.482.221-.06.447.032.563.225l2.071 3.452v-3.195c0-.276.224-.5.5-.5s.5.224.5.5v5c0 .225-.15.422-.366.482-.045.012-.09.018-.134.018z"/><path d="m19.5 6.875c-.413 0-.75-.336-.75-.75s.337-.75.75-.75.75.336.75.75-.337.75-.75.75z"/><path d="m21.62 4.505c-.128 0-.256-.049-.354-.146-.945-.946-2.588-.946-3.533 0-.195.195-.512.195-.707 0s-.195-.512 0-.707c1.324-1.324 3.623-1.324 4.947 0 .195.195.195.512 0 .707-.097.097-.225.146-.353.146z"/><path d="m23.39 2.735c-.128 0-.256-.049-.354-.146-.943-.944-2.199-1.463-3.536-1.463s-2.593.52-3.536 1.463c-.195.195-.512.195-.707 0s-.195-.512 0-.707c1.132-1.133 2.639-1.756 4.243-1.756s3.111.624 4.243 1.756c.195.195.195.512 0 .707-.097.097-.225.146-.353.146z"/></svg>