<svg id="Layer_1" enable-background="new 0 0 512 512" height="512" viewBox="0 0 512 512" width="512" xmlns="http://www.w3.org/2000/svg"><path d="m368.467 512c-89.756 0-185.605-32.981-260.547-107.921-74.817-74.818-107.92-170.603-107.92-260.546 0-79.269 64.132-143.533 143.533-143.533 6.134 0 11.649 3.734 13.927 9.429l64.267 160.667c3.077 7.692-.664 16.421-8.355 19.498l-70.597 28.238c4.994 81.218 70.188 146.408 151.393 151.395l28.239-70.597c3.07-7.679 11.796-11.434 19.498-8.356l160.665 64.266c5.695 2.278 9.43 7.793 9.43 13.927 0 79.269-64.132 143.533-143.533 143.533zm-234.917-481.57c-57.448 4.971-103.55 53.145-103.55 113.103 0 90.408 35.206 175.405 99.134 239.332 63.927 63.928 148.924 99.135 239.333 99.135 59.939 0 108.129-46.076 113.104-103.55l-136.881-54.752-26.563 66.406c-2.277 5.695-7.793 9.429-13.927 9.429-105.729 0-191.733-86.004-191.733-191.717 0-6.133 3.734-11.666 9.429-13.943l66.406-26.563z"/></svg>