<svg id="Capa_1" enable-background="new 0 0 512 512" height="512" viewBox="0 0 512 512" width="512" xmlns="http://www.w3.org/2000/svg"><g><g><path d="m396.816 140.674c.38.058.759.086 1.133.086 3.641 0 6.836-2.66 7.398-6.37 1.201-7.919-1.46-16.026-7.118-21.684-5.275-5.276-12.565-7.942-20.006-7.316-4.123.347-7.185 3.971-6.838 8.095.346 4.123 3.964 7.181 8.095 6.838 3.026-.257 6.004.831 8.153 2.98 2.34 2.339 3.396 5.562 2.899 8.84-.621 4.091 2.193 7.911 6.284 8.531z"/><path d="m423.402 141.468c.381.058.759.086 1.133.086 3.641 0 6.836-2.659 7.398-6.37 2.374-15.648-2.882-31.665-14.062-42.845-10.422-10.421-24.824-15.686-39.526-14.452-4.123.347-7.185 3.971-6.838 8.094.346 4.123 3.964 7.186 8.095 6.838 10.288-.87 20.378 2.821 27.674 10.116 7.826 7.826 11.505 19.042 9.842 30.001-.621 4.092 2.193 7.912 6.284 8.532z"/><path d="m450.854 141.715c.381.058.759.086 1.133.086 3.641 0 6.836-2.659 7.398-6.37 3.561-23.467-4.322-47.486-21.086-64.251-15.627-15.627-37.232-23.527-59.273-21.672-4.124.347-7.185 3.971-6.838 8.094.346 4.124 3.972 7.181 8.094 6.839 17.638-1.485 34.92 4.835 47.422 17.336 13.411 13.411 19.716 32.629 16.867 51.407-.622 4.091 2.192 7.911 6.283 8.531z"/><path d="m341.481 314.613c0 12.389 10.079 22.469 22.469 22.469s22.468-10.079 22.468-22.469-10.079-22.468-22.468-22.468-22.469 10.079-22.469 22.468zm22.468-7.483c4.126 0 7.483 3.357 7.483 7.483s-3.357 7.483-7.483 7.483-7.483-3.357-7.483-7.483 3.357-7.483 7.483-7.483z"/><path d="m411.859.255c-45.495 0-83.996 30.498-96.146 72.122h-263.115c-29.002 0-52.598 23.595-52.598 52.596v247.713c0 4.138 3.355 7.492 7.493 7.492s7.493-3.354 7.493-7.492v-210.996c9.557 9.789 22.884 15.882 37.612 15.882h295.541c17.327 14.332 39.53 22.967 63.72 22.967 11.014 0 21.746-1.781 31.869-5.164v71.563h-82.565c-26.289 0-47.676 21.387-47.676 47.676s21.388 47.676 47.676 47.676h82.565v110.09c0 13.444-10.937 24.381-24.381 24.381h-379.981c-13.444 0-24.381-10.937-24.381-24.381v-65.574c0-4.138-3.355-7.493-7.493-7.493s-7.492 3.354-7.492 7.491v65.574c0 21.707 17.659 39.366 39.366 39.366h379.981c21.707 0 39.366-17.659 39.366-39.366v-110.441c10.026-1.789 17.668-10.552 17.668-21.085v-52.477c0-10.532-7.642-19.295-17.668-21.084v-78.334c12.14-6.43 22.979-15.396 31.792-26.561 2.564-3.248 2.009-7.96-1.239-10.524-3.249-2.563-7.959-2.009-10.524 1.239-16.273 20.618-40.652 32.442-66.884 32.442-46.955 0-85.156-38.201-85.156-85.156s38.201-85.156 85.156-85.156 85.156 38.201 85.156 85.156c0 8.313-1.194 16.524-3.548 24.408-1.184 3.965 1.071 8.139 5.036 9.323 3.966 1.183 8.139-1.071 9.323-5.036 2.77-9.275 4.174-18.93 4.174-28.695.001-55.218-44.922-100.142-100.14-100.142zm49.537 288.12v52.477c0 3.558-2.895 6.452-6.453 6.452h-93.781c-18.026 0-32.691-14.665-32.691-32.691s14.665-32.69 32.691-32.69h93.781c3.558 0 6.453 2.894 6.453 6.452zm-127.969-125.789h-280.829c-20.739 0-37.612-16.873-37.612-37.612s16.873-37.612 37.612-37.612h259.967c-.557 4.267-.848 8.617-.848 13.034 0 5.824.505 11.531 1.464 17.085h-248.182c-4.138 0-7.493 3.354-7.493 7.492s3.355 7.493 7.493 7.493h251.984c3.736 11.024 9.347 21.188 16.444 30.12z"/></g></g></svg>