<svg id="Layer_1" enable-background="new 0 0 117.655 117.655" height="512" viewBox="0 0 117.655 117.655" width="512" xmlns="http://www.w3.org/2000/svg"><path d="m115.655 28.826c1.104 0 2-.896 2-2v-24.697c0-1.104-.896-2-2-2h-24.753c-1.104 0-2 .896-2 2v10.348h-60.15v-10.348c0-1.104-.896-2-2-2h-24.752c-1.104 0-2 .896-2 2v24.696c0 1.104.896 2 2 2h9.001v60.005h-9.001c-1.104 0-2 .896-2 2v24.696c0 1.104.896 2 2 2h24.752c1.104 0 2-.896 2-2v-10.349h60.15v10.349c0 1.104.896 2 2 2h24.753c1.104 0 2-.896 2-2v-24.696c0-1.104-.896-2-2-2h-10.27v-60.004zm-22.753-24.697h20.753v20.696h-20.753zm-88.902 0h20.752v20.696h-20.752zm20.752 109.397h-20.752v-20.696h20.752zm88.903 0h-20.753v-20.696h20.753zm-12.269-24.696h-10.484c-1.104 0-2 .896-2 2v10.348h-60.15v-10.348c0-1.104-.896-2-2-2h-11.751v-60.004h11.751c1.104 0 2-.896 2-2v-10.349h60.15v10.349c0 1.104.896 2 2 2h10.483v60.004z"/></svg>