<svg id="_x31__px" height="512" viewBox="0 0 24 24" width="512" xmlns="http://www.w3.org/2000/svg"><path d="m22.229 17.75c-.077 0-.155-.018-.229-.056-.245-.126-.341-.428-.215-.674.795-1.539 1.215-3.275 1.215-5.02 0-6.065-4.935-11-11-11s-11 4.935-11 11c0 1.745.42 3.481 1.214 5.021.126.246.03.547-.215.674-.248.125-.548.03-.674-.215-.867-1.682-1.325-3.576-1.325-5.48 0-6.617 5.383-12 12-12s12 5.383 12 12c0 1.904-.458 3.798-1.326 5.479-.089.172-.263.271-.445.271z"/><path d="m19.5 24h-2c-.827 0-1.5-.673-1.5-1.5v-3c0-.827.673-1.5 1.5-1.5h2c.276 0 .5.224.5.5s-.224.5-.5.5h-2c-.276 0-.5.224-.5.5v3c0 .276.224.5.5.5h2c.276 0 .5.224.5.5s-.224.5-.5.5z"/><path d="m10.5 24c-.276 0-.5-.224-.5-.5v-4c0-.827.673-1.5 1.5-1.5h2c.276 0 .5.224.5.5s-.224.5-.5.5h-2c-.276 0-.5.224-.5.5v4c0 .276-.224.5-.5.5z"/><path d="m13.5 22h-3c-.276 0-.5-.224-.5-.5s.224-.5.5-.5h3c.276 0 .5.224.5.5s-.224.5-.5.5z"/><path d="m7.5 24c-.172 0-.337-.089-.429-.243l-2.071-3.452v3.195c0 .276-.224.5-.5.5s-.5-.224-.5-.5v-5c0-.225.15-.422.367-.482.216-.06.446.032.562.225l2.071 3.452v-3.195c0-.276.224-.5.5-.5s.5.224.5.5v5c0 .225-.15.422-.367.482-.044.012-.089.018-.133.018z"/><path d="m12 12.375c-.414 0-.75-.336-.75-.75s.336-.75.75-.75.75.336.75.75-.336.75-.75.75z"/><path d="m14.12 10.005c-.128 0-.256-.049-.354-.146-.946-.946-2.587-.946-3.533 0-.195.195-.512.195-.707 0s-.195-.512 0-.707c1.323-1.324 3.624-1.324 4.947 0 .195.195.195.512 0 .707-.097.097-.225.146-.353.146z"/><path d="m15.89 8.235c-.128 0-.256-.049-.354-.146-.944-.944-2.2-1.463-3.537-1.463s-2.592.52-3.537 1.463c-.195.195-.512.195-.707 0s-.195-.512 0-.707c1.135-1.133 2.641-1.757 4.245-1.757s3.11.624 4.244 1.756c.195.195.195.512 0 .707-.098.098-.226.147-.354.147z"/></svg>