<svg id="Capa_1" enable-background="new 0 0 512 512" height="512" viewBox="0 0 512 512" width="512" xmlns="http://www.w3.org/2000/svg"><g><path d="m422.351 93.725c7.29 4.141 15.706 6.52 24.673 6.52 27.638 0 50.123-22.485 50.123-50.122 0-27.638-22.485-50.123-50.123-50.123-27.637 0-50.122 22.485-50.122 50.123 0 7.698 1.749 14.994 4.863 21.518l-54.105 40.975c-7.997-5.402-17.629-8.559-27.985-8.559-10.107 0-19.518 3.017-27.399 8.183l-53.046-43.403c2.074-5.493 3.217-11.438 3.217-17.648 0-27.637-22.485-50.122-50.122-50.122s-50.122 22.485-50.122 50.122c0 7.005 1.45 13.677 4.057 19.738l-69.296 72.899c-3.844-.947-7.857-1.46-11.989-1.46-27.637 0-50.122 22.485-50.122 50.122s22.485 50.122 50.122 50.122 50.122-22.485 50.122-50.122c0-12.405-4.54-23.763-12.033-32.525l62.899-66.169c7.664 4.76 16.695 7.518 26.362 7.518 10.525 0 20.297-3.268 28.37-8.832l52.505 42.96c-2.344 5.793-3.648 12.115-3.648 18.739 0 27.637 22.485 50.122 50.122 50.122s50.122-22.485 50.122-50.122c0-6.376-1.209-12.471-3.39-18.085zm24.673-63.691c11.077 0 20.089 9.011 20.089 20.089 0 11.076-9.011 20.087-20.089 20.087-11.076 0-20.088-9.011-20.088-20.087.001-11.077 9.012-20.089 20.088-20.089zm-382.049 182.542c-11.076 0-20.088-9.011-20.088-20.088s9.011-20.088 20.088-20.088c11.076 0 20.088 9.011 20.088 20.088s-9.012 20.088-20.088 20.088zm127.35-141.299c-11.076 0-20.088-9.011-20.088-20.088s9.011-20.087 20.088-20.087 20.088 9.011 20.088 20.087-9.012 20.088-20.088 20.088zm127.35 102.988c-11.076 0-20.088-9.011-20.088-20.087s9.011-20.088 20.088-20.088 20.088 9.011 20.088 20.088-9.012 20.087-20.088 20.087z"/><path d="m446.153 193.634c-27.013 0-48.991 21.978-48.991 48.991v269.375h97.983v-269.375c0-27.013-21.978-48.991-48.992-48.991zm18.957 288.331h-37.914v-239.34c0-10.452 8.504-18.956 18.956-18.956 10.453 0 18.957 8.504 18.957 18.956v239.34z"/><path d="m319.675 316.343c-27.013 0-48.991 21.977-48.991 48.992v146.665h97.983v-146.666c0-27.014-21.978-48.991-48.992-48.991zm18.957 165.622h-37.914v-116.631c0-10.453 8.504-18.957 18.956-18.957 10.453 0 18.957 8.504 18.957 18.957v116.631z"/><path d="m191.542 233.682c-27.014 0-48.992 21.977-48.992 48.992v229.326h97.984v-229.326c0-27.014-21.977-48.992-48.992-48.992zm18.958 248.283h-37.915v-199.291c0-10.453 8.504-18.957 18.957-18.957s18.957 8.504 18.957 18.957v199.291z"/><path d="m65.064 361.327c-27.014 0-48.992 21.977-48.992 48.991v101.682h97.983v-101.682c0-27.014-21.978-48.991-48.991-48.991zm18.956 120.638h-37.913v-71.647c0-10.453 8.504-18.957 18.957-18.957 10.452 0 18.956 8.504 18.956 18.957z"/></g></svg>