<?xml version="1.0" encoding="iso-8859-1"?>
<!-- Generator: Adobe Illustrator 19.0.0, SVG Export Plug-In . SVG Version: 6.00 Build 0)  -->
<svg version="1.1" id="Capa_1" xmlns="http://www.w3.org/2000/svg" xmlns:xlink="http://www.w3.org/1999/xlink" x="0px" y="0px"
	 viewBox="0 0 512 512" style="enable-background:new 0 0 512 512;" xml:space="preserve">
<g>
	<g>
		<path d="M500.87,0H144.696c-6.144,0-11.13,4.986-11.13,11.13v89.043c0,6.144,4.986,11.13,11.13,11.13
			c6.144,0,11.13-4.986,11.13-11.13V22.261h333.913v333.913h-77.913c-6.144,0-11.13,4.987-11.13,11.13s4.986,11.13,11.13,11.13
			h89.043c6.144,0,11.13-4.986,11.13-11.13V11.13C512,4.986,507.014,0,500.87,0z"/>
	</g>
</g>
<g>
	<g>
		<path d="M367.304,133.565H11.13c-6.144,0-11.13,4.986-11.13,11.13V500.87C0,507.014,4.986,512,11.13,512h356.174
			c6.144,0,11.13-4.986,11.13-11.13V144.696C378.435,138.552,373.448,133.565,367.304,133.565z M356.174,489.739H22.261V155.826
			h333.913V489.739z"/>
	</g>
</g>
<g>
</g>
<g>
</g>
<g>
</g>
<g>
</g>
<g>
</g>
<g>
</g>
<g>
</g>
<g>
</g>
<g>
</g>
<g>
</g>
<g>
</g>
<g>
</g>
<g>
</g>
<g>
</g>
<g>
</g>
</svg>
