<?xml version="1.0" encoding="UTF-8"?>
<svg xmlns="http://www.w3.org/2000/svg" width="512" height="512" viewBox="0 0 28 28"><g id="Layer_2" data-name="Layer 2"><path d="M24.354,16.98l-3.667-3.667a.5.5,0,0,0-.854.354v1.944H18.5V12.056H23a.5.5,0,0,0,.5-.5V9.111a.5.5,0,0,0-.5-.5H18.5V2.988A1.489,1.489,0,0,0,17.013,1.5H2.988A1.489,1.489,0,0,0,1.5,2.988V25.012A1.489,1.489,0,0,0,2.988,26.5H17.013A1.489,1.489,0,0,0,18.5,25.012V19.056h1.333V21a.5.5,0,0,0,.309.462.489.489,0,0,0,.191.038.5.5,0,0,0,.354-.146l3.667-3.667a.5.5,0,0,0,0-.707ZM22.5,11.056H15.667a.5.5,0,0,0-.5.5v1.237l-2.46-2.46,2.46-2.459V9.111a.5.5,0,0,0,.5.5H22.5ZM2.988,2.5H17.013a.488.488,0,0,1,.487.488V3.5H2.5V2.988A.489.489,0,0,1,2.988,2.5Zm14.025,23H2.988a.489.489,0,0,1-.488-.488V23.5h15v1.512A.488.488,0,0,1,17.013,25.5Zm.487-3H2.5V4.5h15V8.611H16.167V6.667a.5.5,0,0,0-.854-.354L11.646,9.98a.5.5,0,0,0,0,.707l3.667,3.667a.5.5,0,0,0,.354.146.489.489,0,0,0,.191-.038A.5.5,0,0,0,16.167,14V12.056H17.5v3.555H13a.5.5,0,0,0-.5.5v2.445a.5.5,0,0,0,.5.5h4.5Zm3.333-2.707V18.556a.5.5,0,0,0-.5-.5H13.5V16.611h6.833a.5.5,0,0,0,.5-.5V14.874l2.46,2.459Z"/><path d="M7.467,9.533A1.568,1.568,0,0,1,9.033,11.1a.5.5,0,0,0,1,0A2.569,2.569,0,0,0,7.967,8.584V8a.5.5,0,0,0-1,0v.584a2.566,2.566,0,0,0,.5,5.083A1.567,1.567,0,1,1,5.9,15.233a.5.5,0,0,0-1,0,2.569,2.569,0,0,0,2.067,2.516v.584a.5.5,0,0,0,1,0v-.584a2.566,2.566,0,0,0-.5-5.082,1.567,1.567,0,0,1,0-3.134Z"/></g></svg>
