<svg id="_x33_0" enable-background="new 0 0 64 64" height="512" viewBox="0 0 64 64" width="512" xmlns="http://www.w3.org/2000/svg"><g><g><path d="m32 16c-5.022 0-9.179 3.725-9.883 8.554.165-.325.493-.554.883-.554 1.657 0 3 1.343 3 3v4.764c0 1.37.774 2.623 2 3.236.22.11.42.247.609.395 1.061.385 2.199.605 3.391.605 5.514 0 10-4.486 10-10s-4.486-10-10-10z" fill="#f0bc5e"/></g><g><g><path d="m4 29c-1.654 0-3-1.346-3-3s1.346-3 3-3 3 1.346 3 3-1.346 3-3 3z" fill="#f0bc5e"/></g></g><g><g><path d="m4 37c-1.654 0-3-1.346-3-3s1.346-3 3-3 3 1.346 3 3-1.346 3-3 3z" fill="#f0bc5e"/></g></g><g><path d="m35 25v-1c0-1.302-.839-2.402-2-2.816v-2.184h-2v2h-2v3c0 1.654 1.346 3 3 3 .551 0 1 .448 1 1v1h-1c-.551 0-1-.448-1-1v-1h-2v1c0 1.302.839 2.402 2 2.816v2.184h2v-2h2v-3c0-1.654-1.346-3-3-3-.551 0-1-.448-1-1v-1h1c.551 0 1 .448 1 1v1z"/><path d="m5 14c0-3.859 3.14-7 7-7h47.586l-2.293 2.293 1.414 1.414 4.707-4.707-4.707-4.707-1.414 1.414 2.293 2.293h-47.586c-4.962 0-9 4.037-9 9v7h2z"/><path d="m59 50c0 3.859-3.14 7-7 7h-11v-10.704c1.31-2.067 2-4.447 2-6.901v-2.395h10c1.103 0 2-.897 2-2v-18c0-1.103-.897-2-2-2h-12v-1c0-1.654-1.346-3-3-3-.771 0-1.468.301-2 .78-.532-.48-1.229-.78-2-.78s-1.468.301-2 .78c-.532-.48-1.229-.78-2-.78s-1.468.301-2 .78c-.532-.48-1.229-.78-2-.78-1.654 0-3 1.346-3 3v1h-12c-1.103 0-2 .897-2 2v18c0 1.103.897 2 2 2h10.031c.155 3.528 1.537 6.834 3.969 9.406v10.594h-20.586l2.293-2.293-1.414-1.414-4.707 4.707 4.707 4.707 1.414-1.414-2.293-2.293h47.586c4.962 0 9-4.037 9-9v-7h-2zm-29.333-15c-.351-.354-.755-.662-1.219-.895-.893-.446-1.448-1.343-1.448-2.341v-4.764c0-2.206-1.794-4-4-4-1.103 0-2 .897-2 2v10h-4.08c-.441-3.059-2.861-5.479-5.92-5.92v-6.16c3.059-.441 5.479-2.861 5.92-5.92h30.16c.441 3.059 2.861 5.479 5.92 5.92v6.16c-3.059.441-5.479 2.861-5.92 5.92zm19.434 0c.399-1.956 1.943-3.5 3.899-3.899v3.899zm3.899-14.101c-1.956-.399-3.5-1.943-3.899-3.899h3.899zm-15-7.899c.551 0 1 .448 1 1v1h-2v-1c0-.552.449-1 1-1zm-4 0c.551 0 1 .448 1 1v1h-2v-1c0-.552.449-1 1-1zm-4 0c.551 0 1 .448 1 1v1h-2v-1c0-.552.449-1 1-1zm-5 1c0-.552.449-1 1-1s1 .448 1 1v1h-2zm-10.101 3c-.399 1.956-1.943 3.5-3.899 3.899v-3.899zm-3.899 14.101c1.956.399 3.5 1.943 3.899 3.899h-3.899zm12 5.242v-11.343c1.103 0 2 .897 2 2v4.764c0 1.76.978 3.343 2.553 4.131.892.446 1.447 1.343 1.447 2.341v.764h2v-.764c0-.426-.06-.84-.169-1.236h5.53c-.867 1.135-1.361 2.529-1.361 4h2c0-1.543.767-2.976 2.051-3.832l.252-.168h1.697v2.395c0 1.986-.541 3.911-1.558 5.605h-13.001c-2.215-2.355-3.441-5.409-3.441-8.657zm4 10.657h12v10h-12z"/></g><g><g><path d="m60 41c-1.654 0-3-1.346-3-3s1.346-3 3-3 3 1.346 3 3-1.346 3-3 3z" fill="#f0bc5e"/></g></g><g><g><path d="m60 33c-1.654 0-3-1.346-3-3s1.346-3 3-3 3 1.346 3 3-1.346 3-3 3z" fill="#f0bc5e"/></g></g></g></svg>