<svg id="svg4593" height="512" viewBox="0 0 16.933333 16.933334" width="512" xmlns="http://www.w3.org/2000/svg" xmlns:svg="http://www.w3.org/2000/svg"><clipPath id="clipPath5337"><path id="rect5339" d="m34.774 274.321h35.435v25.702h-35.435z"/></clipPath><clipPath id="clipPath4542"><path id="rect4544" d="m-535.214-48.848h501.574v185.586h-501.574z"/></clipPath><clipPath id="clipPath11017"><path id="rect11019" d="m36.669 153.503h29.654v28.999h-29.654z" transform="rotate(-90)" vector-effect="none"/></clipPath><clipPath id="clipPath11444"><path id="rect11446" d="m-143.933 265.779h28.84v29.104h-28.84z" transform="rotate(-90)" vector-effect="none"/></clipPath><clipPath id="clipPath11781"><rect id="rect11783" height="32.411" rx=".634" transform="rotate(-90)" width="32.941" x="-145.124" y="181.377"/></clipPath><clipPath id="clipPath11499"><path id="rect11501" d="m-551.399-9.261h16.064v16.347h-16.064z" vector-effect="none"/></clipPath><clipPath id="clipPath3126"><rect id="rect3128" height="7.89" rx="1.058" width="7.938" x="-275.966" y="12.991"/></clipPath><g id="layer1" transform="translate(0 -280.067)"><g id="g20571" transform="translate(-.419)"><g id="g21530" transform="translate(0 -.181)"><path id="rect3941" d="m2.26992 284.44778h13.22917c.7329 0 1.32292.59003 1.32292 1.32292v9.55808c0 .73289-.59002 1.32291-1.32292 1.32291h-13.22917c-.7329 0-1.32292-.59002-1.32292-1.32291v-9.55808c0-.73289.59002-1.32292 1.32292-1.32292z" fill="#a0694c" vector-effect="none"/><path id="rect3944" d="m2.26992 284.44778c-.7329 0-1.32292.59002-1.32292 1.32291v.33073c0 .7329.59002 1.32292 1.32292 1.32292h14.55208v-1.65365c0-.73289-.59002-1.32291-1.32292-1.32291z" fill="#8f4e40" vector-effect="none"/><path id="path4182" d="m2.99752 286.57995a.52929499.52929499 0 0 0 -.4253.84439h11.83029a.52929499.52929499 0 0 0 -.42478-.84439z" fill="#863e3c" font-variant-ligatures="normal" font-variant-position="normal" font-variant-caps="normal" font-variant-numeric="normal" font-variant-alternates="normal" font-feature-settings="normal" text-indent="0" text-align="start" text-decoration-line="none" text-decoration-style="solid" text-decoration-color="#000000" text-transform="none" text-orientation="mixed" white-space="normal" shape-padding="0" isolation="auto" mix-blend-mode="normal" solid-color="#000000" solid-opacity="1" vector-effect="none"/><path id="path3950" d="m8.90104 280.77668a4.2829427 4.2829427 0 0 0 -4.28295 4.28294 4.2829427 4.2829427 0 0 0 .7152 2.36472h7.13549a4.2829427 4.2829427 0 0 0 .7152-2.36472 4.2829427 4.2829427 0 0 0 -4.28294-4.28294z" fill="#ffc861" vector-effect="none"/><path id="path4191" d="m4.90438 286.57995a4.2829427 4.2829427 0 0 0 .42891.84439h7.13549a4.2829427 4.2829427 0 0 0 .43046-.84439z" fill="#ffab61" font-variant-ligatures="normal" font-variant-position="normal" font-variant-caps="normal" font-variant-numeric="normal" font-variant-alternates="normal" font-feature-settings="normal" text-indent="0" text-align="start" text-decoration-line="none" text-decoration-style="solid" text-decoration-color="#000000" text-transform="none" text-orientation="mixed" white-space="normal" shape-padding="0" isolation="auto" mix-blend-mode="normal" solid-color="#000000" solid-opacity="1" vector-effect="none"/><g fill="#863e3c"><path id="path4209" d="m16.146731 293.85754c-.689796.0156-.689796 1.04275 0 1.05833h.675269v-1.05833z" font-variant-ligatures="normal" font-variant-position="normal" font-variant-caps="normal" font-variant-numeric="normal" font-variant-alternates="normal" font-feature-settings="normal" text-indent="0" text-align="start" text-decoration-line="none" text-decoration-style="solid" text-decoration-color="#000000" text-transform="none" text-orientation="mixed" white-space="normal" shape-padding="0" isolation="auto" mix-blend-mode="normal" solid-color="#000000" solid-opacity="1" vector-effect="none"/><path id="path20716" d="m43.939453 54.511719c-1.491968 0-1.470803 2 0 2h2.001953c1.418684 0 1.519899-2 0-2zm8.001953 0c-1.42337 0-1.406362 2 0 2h2.001953c1.169726 0 1.325027-2 0-2z" transform="matrix(.265 0 0 .265 .419 280.248)" font-variant-ligatures="normal" font-variant-position="normal" font-variant-caps="normal" font-variant-numeric="normal" font-variant-alternates="normal" font-feature-settings="normal" text-indent="0" text-align="start" text-decoration-line="none" text-decoration-style="solid" text-decoration-color="#000000" text-transform="none" text-orientation="mixed" white-space="normal" shape-padding="0" isolation="auto" mix-blend-mode="normal" solid-color="#000000" solid-opacity="1" vector-effect="none"/><path id="path20714" d="m27.935547 54.511719c-1.465625 0-1.397707 2 0 2h2.001953c1.445291 0 1.428019-2 0-2zm8.001953 0c-1.345096 0-1.429228 2 0 2h2.001953c1.309493 0 1.284397-1.964586 0-2-.679861-.022677-1.330293-.011339-2.001953 0z" transform="matrix(.265 0 0 .265 .419 280.248)" font-variant-ligatures="normal" font-variant-position="normal" font-variant-caps="normal" font-variant-numeric="normal" font-variant-alternates="normal" font-feature-settings="normal" text-indent="0" text-align="start" text-decoration-line="none" text-decoration-style="solid" text-decoration-color="#000000" text-transform="none" text-orientation="mixed" white-space="normal" shape-padding="0" isolation="auto" mix-blend-mode="normal" solid-color="#000000" solid-opacity="1" vector-effect="none"/><path id="path20712" d="m11.939453 54.511719c-1.516989 0-1.394986 2 0 2h2c1.444082 0 1.432441-2 0-2zm8.001953 0c-1.494841 0-1.541178 2 0 2h2c1.418268 0 1.430589-2 0-2z" transform="matrix(.265 0 0 .265 .419 280.248)" font-variant-ligatures="normal" font-variant-position="normal" font-variant-caps="normal" font-variant-numeric="normal" font-variant-alternates="normal" font-feature-settings="normal" text-indent="0" text-align="start" text-decoration-line="none" text-decoration-style="solid" text-decoration-color="#000000" text-transform="none" text-orientation="mixed" white-space="normal" shape-padding="0" isolation="auto" mix-blend-mode="normal" solid-color="#000000" solid-opacity="1" vector-effect="none"/><path id="path20710" d="m8.1269531 50.125c-.5001449-.003175-1 .391659-1 1.197266v2.001953c0 1.482179 2 1.439546 2 0v-2.001953c0-.792983-.4998929-1.194091-1-1.197266z" transform="matrix(.265 0 0 .265 .419 280.248)" font-variant-ligatures="normal" font-variant-position="normal" font-variant-caps="normal" font-variant-numeric="normal" font-variant-alternates="normal" font-feature-settings="normal" text-indent="0" text-align="start" text-decoration-line="none" text-decoration-style="solid" text-decoration-color="#000000" text-transform="none" text-orientation="mixed" white-space="normal" shape-padding="0" isolation="auto" mix-blend-mode="normal" solid-color="#000000" solid-opacity="1" vector-effect="none"/><path id="path20708" d="m8.1269531 43.009766c-.5001449.003779-1 .436891-1 1.283203v2c0 1.428926 2 1.436447 2 0v-2c0-.865247-.4998929-1.287928-1-1.283203z" transform="matrix(.265 0 0 .265 .419 280.248)" font-variant-ligatures="normal" font-variant-position="normal" font-variant-caps="normal" font-variant-numeric="normal" font-variant-alternates="normal" font-feature-settings="normal" text-indent="0" text-align="start" text-decoration-line="none" text-decoration-style="solid" text-decoration-color="#000000" text-transform="none" text-orientation="mixed" white-space="normal" shape-padding="0" isolation="auto" mix-blend-mode="normal" solid-color="#000000" solid-opacity="1" vector-effect="none"/><path id="path20704" d="m8.1269531 35.849609c-.5001449-.007559-1 .356028-1 1.111329v2.001953c0 1.402771 2 1.395061 2 0v-2.001953c0-.727862-.4998929-1.104488-1-1.111329zm45.6132809.501953c-.499993.003142-1 .320721-1 .94336v.455078 2h2v-2-.455078c0-.635206-.500006-.9465-1-.94336z" transform="matrix(.265 0 0 .265 .419 280.248)" font-variant-ligatures="normal" font-variant-position="normal" font-variant-caps="normal" font-variant-numeric="normal" font-variant-alternates="normal" font-feature-settings="normal" text-indent="0" text-align="start" text-decoration-line="none" text-decoration-style="solid" text-decoration-color="#000000" text-transform="none" text-orientation="mixed" white-space="normal" shape-padding="0" isolation="auto" mix-blend-mode="normal" solid-color="#000000" solid-opacity="1" vector-effect="none"/><path id="path20702" d="m42.101562 31.935547c-1.48694 0-1.387614 2 0 2h2.001954c1.461732 0 1.380056-2 0-2zm8.001954 0c-1.231106 0-1.269808 2 0 2h2.001953c1.350538 0 1.331452-2 0-2z" transform="matrix(.265 0 0 .265 .419 280.248)" font-variant-ligatures="normal" font-variant-position="normal" font-variant-caps="normal" font-variant-numeric="normal" font-variant-alternates="normal" font-feature-settings="normal" text-indent="0" text-align="start" text-decoration-line="none" text-decoration-style="solid" text-decoration-color="#000000" text-transform="none" text-orientation="mixed" white-space="normal" shape-padding="0" isolation="auto" mix-blend-mode="normal" solid-color="#000000" solid-opacity="1" vector-effect="none"/><path id="path20700" d="m26.105469 31.935547c-1.536983 0-1.430665 2 0 2h1.992187c1.445103 0 1.637556-2 0-2zm7.99414 0c-1.497902 0-1.447823 2 0 2h2.001953c1.587213 0 1.677393-2 0-2z" transform="matrix(.265 0 0 .265 .419 280.248)" font-variant-ligatures="normal" font-variant-position="normal" font-variant-caps="normal" font-variant-numeric="normal" font-variant-alternates="normal" font-feature-settings="normal" text-indent="0" text-align="start" text-decoration-line="none" text-decoration-style="solid" text-decoration-color="#000000" text-transform="none" text-orientation="mixed" white-space="normal" shape-padding="0" isolation="auto" mix-blend-mode="normal" solid-color="#000000" solid-opacity="1" vector-effect="none"/><path id="path20698" d="m10.101562 31.935547c-1.2639108 0-1.3359486 2 0 2h2c1.233714 0 1.315578-2 0-2zm8.001954 0c-1.321248 0-1.274835 2 0 2h2c1.204837 0 1.321852-2 0-2z" transform="matrix(.265 0 0 .265 .419 280.248)" font-variant-ligatures="normal" font-variant-position="normal" font-variant-caps="normal" font-variant-numeric="normal" font-variant-alternates="normal" font-feature-settings="normal" text-indent="0" text-align="start" text-decoration-line="none" text-decoration-style="solid" text-decoration-color="#000000" text-transform="none" text-orientation="mixed" white-space="normal" shape-padding="0" isolation="auto" mix-blend-mode="normal" solid-color="#000000" solid-opacity="1" vector-effect="none"/></g><path id="path4408-4" d="m32.0625 9.9277344c-.500003.0132614-1 .3629566-1 1.0097656h.001953v.376953c-3.574601.957808-2.46645 6.341797.900391 6.341797 1.321701 0 1.469176 1.675393.990234 2.154297-.361323.361323-.900795.468537-1.373047.273437-.47229-.195779-.77539-.654834-.77539-1.166015.030236-1.363238-2.030237-1.363238-2 0 0 1.314368.793488 2.508739 2.007812 3.011719.082016.034014.164519.055196.248047.082031v.242187c-.030236 1.363276 2.030274 1.363276 2 0v-.24414c3.594935-1.284889 2.424201-6.267228-1.003906-6.347657-1.359647 0-1.558315-1.467075-.884766-2.140625.361323-.361322.892984-.468536 1.365234-.273437.472252.195779.775391.649013.775391 1.160156-.030236 1.363276 2.030274 1.363276 2 0 0-1.109934-.687833-2.804515-2.251953-3.091797v-.378906c0-.699855-.499997-1.023027-1-1.0097656z" fill="#666" transform="matrix(.265 0 0 .265 .419 280.248)" font-variant-ligatures="normal" font-variant-position="normal" font-variant-caps="normal" font-variant-numeric="normal" font-variant-alternates="normal" font-feature-settings="normal" text-indent="0" text-align="start" text-decoration-line="none" text-decoration-style="solid" text-decoration-color="#000000" text-transform="none" text-orientation="mixed" white-space="normal" shape-padding="0" isolation="auto" mix-blend-mode="normal" solid-color="#000000" solid-opacity="1" vector-effect="none"/><path id="rect4196" d="m13.71314 290.50012c-.73289 0-1.32291.59002-1.32291 1.32292v.89296c0 .7329.59002 1.32292 1.32291 1.32292h3.10886v-3.5388z" fill="#d1dcff" vector-effect="none"/></g></g></g></svg>