<?xml version="1.0" encoding="iso-8859-1"?>
<!-- Generator: Adobe Illustrator 19.0.0, SVG Export Plug-In . SVG Version: 6.00 Build 0)  -->
<svg version="1.1" id="Capa_1" xmlns="http://www.w3.org/2000/svg" xmlns:xlink="http://www.w3.org/1999/xlink" x="0px" y="0px"
	 viewBox="0 0 512 512" style="enable-background:new 0 0 512 512;" xml:space="preserve">
<path style="fill:#7C3D1E;" d="M430.474,71.849H49.57C22.237,71.849,0,94.086,0,121.42v6.724c0,27.333,22.237,49.57,49.57,49.57
	h380.906c4.154,0,7.52-3.366,7.52-7.52V79.369C437.995,75.215,434.629,71.849,430.474,71.849z"/>
<path style="fill:#68321A;" d="M2.053,107.327C0.724,111.797,0,116.523,0,121.42v6.724c0,27.333,22.237,49.57,49.57,49.57h380.906
	c4.154,0,7.52-3.366,7.52-7.52v-27.417H49.57C27.1,142.776,8.134,127.822,2.053,107.327z"/>
<path style="fill:#78AA17;" d="M239.688,48.724l-28.569-28.568c-2.936-2.936-7.698-2.936-10.636,0L55.765,164.874
	c-2.151,2.152-2.794,5.385-1.629,8.196c1.163,2.811,3.907,4.643,6.948,4.643h57.137c1.994,0,3.907-0.792,5.318-2.202l116.15-116.15
	c1.41-1.411,2.202-3.323,2.202-5.318C241.891,52.048,241.098,50.136,239.688,48.724z"/>
<path style="fill:#6D8915;" d="M77.521,143.119l-21.755,21.755c-2.151,2.152-2.794,5.385-1.629,8.196
	c1.163,2.811,3.907,4.643,6.948,4.643h57.137c1.994,0,3.907-0.792,5.318-2.202l32.391-32.391H77.521z"/>
<path style="fill:#8ACC19;" d="M412.974,164.874L268.257,20.156c-2.938-2.936-7.699-2.936-10.637,0L112.903,164.874
	c-2.151,2.152-2.794,5.385-1.629,8.196c1.163,2.811,3.907,4.643,6.948,4.643h289.436c3.041,0,5.784-1.832,6.948-4.643
	C415.768,170.259,415.125,167.025,412.974,164.874z"/>
<g>
	<path style="fill:#78A017;" d="M112.903,164.874c-2.151,2.152-2.794,5.385-1.629,8.196c1.163,2.811,3.907,4.643,6.948,4.643
		h289.436c3.041,0,5.784-1.832,6.948-4.643c1.164-2.811,0.521-6.044-1.629-8.196l-21.755-21.755H134.658L112.903,164.874z"/>
	<path style="fill:#78A017;" d="M370.212,164.874l-80.347-80.348c-1.411-1.41-3.324-2.202-5.318-2.202
		c-1.994,0-3.906,0.792-5.318,2.202c-4.321,4.322-10.065,6.702-16.177,6.702c-6.111,0-11.856-2.379-16.177-6.701
		c-1.41-1.411-3.323-2.203-5.318-2.203c-1.995,0-3.907,0.792-5.318,2.202l-80.348,80.348c-2.151,2.152-2.794,5.385-1.629,8.196
		c1.163,2.811,3.907,4.643,6.948,4.643h203.685c3.041,0,5.785-1.832,6.948-4.643C373.006,170.259,372.362,167.025,370.212,164.874z"
		/>
</g>
<path style="fill:#6D8915;" d="M155.892,164.874c-2.151,2.152-2.794,5.385-1.629,8.196c1.163,2.811,3.907,4.643,6.948,4.643h203.685
	c3.041,0,5.785-1.832,6.948-4.643c1.164-2.811,0.521-6.044-1.629-8.196l-21.755-21.755H177.646L155.892,164.874z"/>
<path style="fill:#AA5D24;" d="M477.204,162.672H119.424H52.932H40.668c-21.596,0-39.26-16.799-40.66-38.041
	C0.007,124.681,0,124.731,0,124.784v0.001v316.33c0,29.187,23.745,52.932,52.932,52.932h424.273c4.154,0,7.52-3.366,7.52-7.52
	V170.192C484.725,166.039,481.358,162.672,477.204,162.672z"/>
<path style="fill:#7C3D1E;" d="M484.725,291.845H403.78c-30.233,0-54.831,24.596-54.831,54.831
	c0,30.233,24.596,54.831,54.831,54.831h80.945V291.845z"/>
<path style="fill:#F99608;" d="M489.439,272.531h-85.66c-30.233,0-54.831,24.596-54.831,54.831
	c0,30.233,24.596,54.831,54.831,54.831h85.66c12.44,0,22.561-10.121,22.561-22.561v-64.539
	C512,282.651,501.879,272.531,489.439,272.531z"/>
<path style="fill:#FFD039;" d="M410.147,302.828c-13.526,0-24.531,11.006-24.531,24.532s11.005,24.531,24.531,24.531
	c13.526,0,24.532-11.005,24.532-24.531S423.673,302.828,410.147,302.828z"/>
<g>
</g>
<g>
</g>
<g>
</g>
<g>
</g>
<g>
</g>
<g>
</g>
<g>
</g>
<g>
</g>
<g>
</g>
<g>
</g>
<g>
</g>
<g>
</g>
<g>
</g>
<g>
</g>
<g>
</g>
</svg>
