<svg xmlns="http://www.w3.org/2000/svg" version="1.1" xmlns:xlink="http://www.w3.org/1999/xlink" xmlns:svgjs="http://svgjs.com/svgjs" width="1440" height="560" preserveAspectRatio="none" viewBox="0 0 1440 560"><g mask="url(&quot;#SvgjsMask1003&quot;)" fill="none"><rect width="1440" height="560" x="0" y="0" fill="rgba(217, 119, 6, 1)"></rect><path d="M182.51 648.33C401.54 619.64 523.36 119.34 887.99 116.29 1252.61 113.24 1412.48 277.65 1593.46 278.69" stroke="rgba(255, 210, 0, 0.58)" stroke-width="2"></path><path d="M353.52 575.98C536.93 554.8 644.68 149.73 954.9 147.36 1265.13 144.99 1402.82 269.93 1556.29 270.56" stroke="rgba(255, 210, 0, 0.58)" stroke-width="2"></path><path d="M701.61 660.22C825.47 596.57 759.54 194.01 997.2 188.09 1234.85 182.17 1437.11 316.15 1588.37 316.89" stroke="rgba(255, 210, 0, 0.58)" stroke-width="2"></path><path d="M609.04 594.06C785.57 545.59 840.39 60.47 1104.3 54.69 1368.2 48.91 1468.37 225.8 1599.55 228.29" stroke="rgba(255, 210, 0, 0.58)" stroke-width="2"></path><path d="M434.37 644.16C539.98 641.34 629.57 488.32 827.11 488.19 1024.65 488.06 1023.48 558.19 1219.85 558.19 1416.22 558.19 1512.86 488.46 1612.59 488.19" stroke="rgba(255, 210, 0, 0.58)" stroke-width="2"></path></g><defs><mask id="SvgjsMask1003"><rect width="1440" height="560" fill="#ffffff"></rect></mask></defs></svg>