<?xml version="1.0" encoding="UTF-8"?>
<svg xmlns="http://www.w3.org/2000/svg" viewBox="0 0 64 64" width="512" height="512"><g id="exchange-transfer-money-bank-financial"><path d="M19,24a1,1,0,0,1-1-1,1,1,0,0,0-1-1H13a1,1,0,0,0-1,1,7.009,7.009,0,0,0,4,6.319V31a1,1,0,0,0,1,1h4a1,1,0,0,0,1-1V29.319A7,7,0,0,0,19,16a1,1,0,1,1,1-1,1,1,0,0,0,1,1h4a1,1,0,0,0,1-1,7.011,7.011,0,0,0-4-6.32V7a1,1,0,0,0-1-1H17a1,1,0,0,0-1,1V8.669a6.943,6.943,0,0,0-3.844,4.836A7.007,7.007,0,0,0,19,22a1,1,0,0,1,0,2Zm0-4a4.983,4.983,0,0,1-3.882-1.849,5.045,5.045,0,0,1-1-4.238,4.94,4.94,0,0,1,3.215-3.629A1,1,0,0,0,18,9.34V8h2V9.348a1,1,0,0,0,.667.942A5.012,5.012,0,0,1,23.9,14H21.829A3,3,0,1,0,19,18a5,5,0,0,1,1.667,9.709,1,1,0,0,0-.667.942V30H18V28.651a1,1,0,0,0-.667-.942A5.011,5.011,0,0,1,14.1,24h2.069A3,3,0,1,0,19,20Z"/><path d="M19,36A17,17,0,1,0,2,19,17.019,17.019,0,0,0,19,36ZM19,4A15,15,0,1,1,4,19,15.017,15.017,0,0,1,19,4Z"/><path d="M45,28A17,17,0,1,0,62,45,17.024,17.024,0,0,0,45,28Zm0,32A15,15,0,1,1,60,45,15.018,15.018,0,0,1,45,60Z"/><path d="M55.71,42.29l-10-10a1.008,1.008,0,0,0-1.42,0l-10,10a1,1,0,0,0-.21,1.09A.987.987,0,0,0,35,44h3v7H37a1,1,0,0,0-1,1v4a1,1,0,0,0,1,1H53a1,1,0,0,0,1-1V52a1,1,0,0,0-1-1H52V44h3a.987.987,0,0,0,.92-.62A1,1,0,0,0,55.71,42.29ZM52,55H38V53H52ZM40,51V44h2v7Zm4,0V44h2v7Zm4,0V44h2v7ZM37.41,42,45,34.41,52.59,42Z"/><circle cx="45" cy="39" r="2"/><path d="M7.146,37.56l2.147,2.147,1.414-1.414-4-4a1,1,0,0,0-1.414,0l-4,4,1.414,1.414,2.4-2.4A25.031,25.031,0,0,0,30,60V58A23.03,23.03,0,0,1,7.146,37.56Z"/><path d="M56.854,26.44l-2.147-2.147-1.414,1.414,4,4a1,1,0,0,0,1.414,0l4-4-1.414-1.414-2.4,2.4A25.031,25.031,0,0,0,34,4V6A23.03,23.03,0,0,1,56.854,26.44Z"/></g></svg>
