<svg id="Capa_1" enable-background="new 0 0 512 512" height="512" viewBox="0 0 512 512" width="512" xmlns="http://www.w3.org/2000/svg"><path d="m256 116.092c7.539 0 12.541 3.695 12.541 6.139 0 4.142 3.358 7.5 7.5 7.5s7.5-3.358 7.5-7.5c0-9.85-8.356-17.92-20.041-20.369v-2.176c0-4.142-3.358-7.5-7.5-7.5s-7.5 3.358-7.5 7.5v2.176c-11.685 2.449-20.041 10.52-20.041 20.369 0 16.495 15.792 21.612 25.228 24.67 13.788 4.468 14.853 7.129 14.853 10.4 0 2.444-5.001 6.139-12.541 6.139s-12.541-3.695-12.541-6.139c0-4.142-3.358-7.5-7.5-7.5s-7.5 3.358-7.5 7.5c0 9.85 8.356 17.92 20.041 20.369v2.176c0 4.142 3.358 7.5 7.5 7.5s7.5-3.358 7.5-7.5v-2.176c11.685-2.449 20.041-10.52 20.041-20.369 0-16.494-15.792-21.612-25.229-24.67-13.787-4.468-14.853-7.129-14.853-10.4.001-2.444 5.003-6.139 12.542-6.139z"/><path d="m504.5 460.927h-8.532v-24.564c0-4.142-3.358-7.5-7.5-7.5h-8.532v-24.564c0-4.142-3.358-7.5-7.5-7.5h-8.532v-145.324h8.532c4.142 0 7.5-3.358 7.5-7.5v-24.564h16.548c4.142 0 7.5-3.358 7.5-7.5v-24.048c0-2.634-1.382-5.076-3.641-6.431l-240.484-144.291c-2.375-1.425-5.343-1.425-7.718 0l-240.484 144.291c-2.259 1.355-3.641 3.797-3.641 6.431v24.048c0 4.142 3.358 7.5 7.5 7.5h16.548v24.564c0 4.142 3.358 7.5 7.5 7.5h8.532v145.323h-8.532c-4.142 0-7.5 3.358-7.5 7.5v24.564h-8.532c-4.142 0-7.5 3.358-7.5 7.5v24.564h-8.532c-4.142 0-7.5 3.358-7.5 7.5s3.358 7.5 7.5 7.5h497c4.142 0 7.5-3.358 7.5-7.5s-3.358-7.499-7.5-7.499zm-55.597-64.129h-33.097v-145.323h33.097zm-81.194 0v-145.323h33.097v145.323zm-48.096 0v-145.323h33.097v145.323zm-32.065 0v-64.645c0-17.396-14.152-31.548-31.548-31.548s-31.548 14.152-31.548 31.548v64.645h-17.064v-145.323h97.226v145.323zm-48.096 0v-64.645c0-9.125 7.423-16.548 16.548-16.548s16.548 7.423 16.548 16.548v64.645zm-80.161 0v-145.323h33.097v145.323zm-48.098 0v-145.323h33.097v145.323zm-64.129-177.387h377.278c4.142 0 7.5-3.358 7.5-7.5s-3.358-7.5-7.5-7.5h-401.326v-12.302l232.984-139.79 232.984 139.79v12.302h-32.583c-4.142 0-7.5 3.358-7.5 7.5s3.358 7.5 7.5 7.5h8.534v17.064h-417.871zm16.033 32.064h33.097v145.323h-33.097zm-32.065 192.388h24.566c4.142 0 7.5-3.358 7.5-7.5s-3.358-7.5-7.5-7.5h-8.534v-17.064h417.871v17.064h-377.276c-4.142 0-7.5 3.358-7.5 7.5s3.358 7.5 7.5 7.5h393.309v17.064h-449.936z"/><path d="m207.903 132.266h-16.032c-4.142 0-7.5 3.358-7.5 7.5s3.358 7.5 7.5 7.5h16.032c4.142 0 7.5-3.358 7.5-7.5s-3.358-7.5-7.5-7.5z"/><path d="m320.129 132.266h-16.032c-4.142 0-7.5 3.358-7.5 7.5s3.358 7.5 7.5 7.5h16.032c4.142 0 7.5-3.358 7.5-7.5s-3.358-7.5-7.5-7.5z"/></svg>