<svg enable-background="new 0 0 32 32" height="512" viewBox="0 0 32 32" width="512" xmlns="http://www.w3.org/2000/svg"><g id="Layer_1"><g fill="rgb(0,0,0)"><path d="m27.2 5h-22.4c-2.1 0-3.8 1.7-3.8 3.8v14.4c0 2.1 1.7 3.8 3.8 3.8h22.4c2.1 0 3.8-1.7 3.8-3.8v-14.4c0-2.1-1.7-3.8-3.8-3.8zm1.8 18.2c0 .99-.81 1.8-1.8 1.8h-22.4c-.99 0-1.8-.81-1.8-1.8v-14.4c0-.99.81-1.8 1.8-1.8h22.4c.99 0 1.8.81 1.8 1.8z"/><path d="m10 21h-4c-.5522 0-1 .4478-1 1s.4478 1 1 1h4c.5522 0 1-.4478 1-1s-.4478-1-1-1z"/><path d="m26 10h-20c-.5522 0-1 .4478-1 1s.4478 1 1 1h20c.5522 0 1-.4478 1-1s-.4478-1-1-1z"/></g></g></svg>