<svg id="Layer_1" enable-background="new 0 0 511.881 511.881" height="512" viewBox="0 0 511.881 511.881" width="512" xmlns="http://www.w3.org/2000/svg"><g><path d="m159.737 124.152-35.584 35.585v192.405l35.584 35.585h192.406l35.584-35.585v-192.405l-35.584-35.585zm113.702 143.79c9.484 0 17.2 7.716 17.2 17.201s-7.716 17.2-17.2 17.2h-28.131v-34.401zm-7.702-30h-20.429v-28.28h20.429c7.796 0 14.14 6.343 14.14 14.14s-6.343 14.14-14.14 14.14zm-111.584 101.774v-167.552l18.011-18.011h68.793v25.51h-43.647v30h17.999v92.681h-17.999v30h43.647v25.385h-68.793zm203.575 0-18.011 18.012h-68.76v-25.385h2.482c26.026 0 47.2-21.174 47.2-47.201 0-15.031-7.071-28.433-18.051-37.083 4.601-6.966 7.289-15.302 7.289-24.257 0-22.572-17.034-41.229-38.92-43.821v-25.829h68.76l18.011 18.011z"/><path d="m511.881 189.068v-30h-62.538v-46.807l-49.723-49.723h-46.807v-62.538h-30v62.538h-51.873v-62.538h-30v62.538h-51.873v-62.538h-30v62.538h-46.807l-49.723 49.723v46.807h-62.537v30h62.538v51.873h-62.538v30h62.538v51.872h-62.538v30h62.538v46.808l49.723 49.723h46.807v62.538h30v-62.538h51.873v62.538h30v-62.538h51.873v62.538h30v-62.538h46.807l49.723-49.723v-46.808h62.538v-30h-62.538v-51.873h62.538v-30h-62.538v-51.873h62.537zm-92.538 198.126-32.149 32.149h-262.506l-32.149-32.149v-262.507l32.149-32.149h262.506l32.149 32.149z"/></g></svg>