<?xml version="1.0" encoding="iso-8859-1"?>
<!-- Generator: Adobe Illustrator 19.0.0, SVG Export Plug-In . SVG Version: 6.00 Build 0)  -->
<svg version="1.1" id="Layer_1" xmlns="http://www.w3.org/2000/svg" xmlns:xlink="http://www.w3.org/1999/xlink" x="0px" y="0px"
	 viewBox="0 0 512 512" style="enable-background:new 0 0 512 512;" xml:space="preserve">
<g transform="translate(1 1)">
	<g>
		<g>
			<path d="M328.763,476.288c5.207,0,8.678-3.471,8.678-8.678s-3.471-8.678-8.678-8.678h-26.034c-5.207,0-8.678,3.471-8.678,8.678
				s3.471,8.678,8.678,8.678H328.763z"/>
			<path d="M337.441,493.644h-43.39c-5.207,0-8.678,3.471-8.678,8.678c0,5.207,3.471,8.678,8.678,8.678h43.39
				c5.207,0,8.678-3.471,8.678-8.678C346.119,497.115,342.647,493.644,337.441,493.644z"/>
			<path d="M429.427,328.763c-8.678,0-16.488,3.471-22.563,8.678c0-20.827-15.62-43.39-38.183-43.39
				c-8.678,0-16.488,3.471-22.563,8.678c0-20.827-15.62-43.39-38.183-43.39c-8.678,0-16.488,3.471-22.563,8.678v-52.068
				c0-20.827-15.62-43.39-38.183-43.39c-22.563,0-39.919,22.563-39.919,43.39V373.02c-7.81-16.488-17.356-31.241-27.769-41.654
				c-15.62-15.62-42.522-17.356-58.142-4.339c-5.207,4.339-19.959,20.827,1.736,50.332c17.356,24.298,25.166,72.895,30.373,105.871
				c0,4.339,0.868,8.678,1.736,12.149c0.868,4.339,4.339,6.942,8.678,6.942c5.207-0.868,8.678-6.075,7.81-10.414
				c0-3.471-0.868-7.81-1.736-12.149c-5.207-33.844-13.885-85.912-32.976-112.814c-5.207-6.942-12.149-19.959-4.339-26.902
				c7.81-6.075,25.166-6.075,34.712,3.471c20.827,20.827,39.919,67.688,39.919,89.383c0,5.207,3.471,8.678,8.678,8.678
				s8.678-3.471,8.678-8.678V215.949c0-13.017,11.281-26.034,22.563-26.034c12.149,0,20.827,13.885,20.827,26.034v164.881
				c0,5.207,3.471,8.678,8.678,8.678c5.207,0,8.678-3.471,8.678-8.678v-78.102c0-13.017,11.281-26.034,22.563-26.034
				c12.149,0,20.827,13.885,20.827,26.034v86.78c0,5.207,3.471,8.678,8.678,8.678s8.678-3.471,8.678-8.678v-52.068
				c0-13.017,11.281-26.034,22.563-26.034c12.149,0,20.827,13.885,20.827,26.034v69.424c0,5.207,3.471,8.678,8.678,8.678
				c5.207,0,8.678-3.471,8.678-8.678v-34.712c0-13.017,11.281-26.034,22.563-26.034c12.149,0,20.827,13.885,20.827,26.034v121.492
				c0,5.207,3.471,8.678,8.678,8.678c5.207,0,8.678-3.471,8.678-8.678V372.153C467.61,351.325,451.99,328.763,429.427,328.763z"/>
			<path d="M77.102,68.424c19.092,0,34.712-15.62,34.712-34.712C111.814,14.62,96.193-1,77.102-1C58.01-1,42.39,14.62,42.39,33.712
				C42.39,52.803,58.01,68.424,77.102,68.424z M77.102,16.356c9.546,0,17.356,7.81,17.356,17.356s-7.81,17.356-17.356,17.356
				s-17.356-7.81-17.356-17.356S67.556,16.356,77.102,16.356z"/>
			<path d="M163.881,68.424c19.092,0,34.712-15.62,34.712-34.712C198.593,14.62,182.973-1,163.881-1
				c-19.091,0-34.712,15.62-34.712,34.712C129.169,52.803,144.79,68.424,163.881,68.424z M163.881,16.356
				c9.546,0,17.356,7.81,17.356,17.356s-7.81,17.356-17.356,17.356s-17.356-7.81-17.356-17.356S154.336,16.356,163.881,16.356z"/>
			<path d="M250.661,68.424c19.092,0,34.712-15.62,34.712-34.712C285.373,14.62,269.753-1,250.661-1s-34.712,15.62-34.712,34.712
				C215.949,52.803,231.569,68.424,250.661,68.424z M250.661,16.356c9.546,0,17.356,7.81,17.356,17.356s-7.81,17.356-17.356,17.356
				s-17.356-7.81-17.356-17.356S241.115,16.356,250.661,16.356z"/>
			<path d="M77.102,155.203c19.092,0,34.712-15.62,34.712-34.712c0-19.091-15.62-34.712-34.712-34.712
				c-19.091,0-34.712,15.62-34.712,34.712C42.39,139.583,58.01,155.203,77.102,155.203z M77.102,103.136
				c9.546,0,17.356,7.81,17.356,17.356s-7.81,17.356-17.356,17.356s-17.356-7.81-17.356-17.356S67.556,103.136,77.102,103.136z"/>
			<path d="M163.881,155.203c19.092,0,34.712-15.62,34.712-34.712c0-19.091-15.62-34.712-34.712-34.712
				c-19.091,0-34.712,15.62-34.712,34.712C129.169,139.583,144.79,155.203,163.881,155.203z M163.881,103.136
				c9.546,0,17.356,7.81,17.356,17.356s-7.81,17.356-17.356,17.356s-17.356-7.81-17.356-17.356S154.336,103.136,163.881,103.136z"/>
			<path d="M250.661,155.203c19.092,0,34.712-15.62,34.712-34.712c0-19.091-15.62-34.712-34.712-34.712s-34.712,15.62-34.712,34.712
				C215.949,139.583,231.569,155.203,250.661,155.203z M250.661,103.136c9.546,0,17.356,7.81,17.356,17.356
				s-7.81,17.356-17.356,17.356s-17.356-7.81-17.356-17.356S241.115,103.136,250.661,103.136z"/>
			<path d="M77.102,172.559c-19.091,0-34.712,15.62-34.712,34.712s15.62,34.712,34.712,34.712c19.092,0,34.712-15.62,34.712-34.712
				S96.193,172.559,77.102,172.559z M77.102,224.627c-9.546,0-17.356-7.81-17.356-17.356s7.81-17.356,17.356-17.356
				s17.356,7.81,17.356,17.356S86.647,224.627,77.102,224.627z"/>
			<path d="M163.881,241.983c19.092,0,34.712-15.62,34.712-34.712s-15.62-34.712-34.712-34.712
				c-19.091,0-34.712,15.62-34.712,34.712S144.79,241.983,163.881,241.983z M163.881,189.915c9.546,0,17.356,7.81,17.356,17.356
				s-7.81,17.356-17.356,17.356s-17.356-7.81-17.356-17.356S154.336,189.915,163.881,189.915z"/>
		</g>
	</g>
</g>
<g>
</g>
<g>
</g>
<g>
</g>
<g>
</g>
<g>
</g>
<g>
</g>
<g>
</g>
<g>
</g>
<g>
</g>
<g>
</g>
<g>
</g>
<g>
</g>
<g>
</g>
<g>
</g>
<g>
</g>
</svg>
