<?xml version="1.0"?>
<svg xmlns="http://www.w3.org/2000/svg" viewBox="0 0 64 64" width="512" height="512"><g id="Money-Cash-Payment"><path d="M55.15,42.434,46.634,47.35A4,4,0,0,0,43,45H31.162l-3.69-1.23A14.977,14.977,0,0,0,22.729,43h-.851a15,15,0,0,0-7.718,2.138L12.723,46H12a1,1,0,0,0-1-1H3a1,1,0,0,0-1,1V60a1,1,0,0,0,1,1h8a1,1,0,0,0,1-1h7.531a6.986,6.986,0,0,1,.818.048l11.921,1.4a14.717,14.717,0,0,0,1.729.1,15.1,15.1,0,0,0,7.523-2.008L59.15,49.366a3.962,3.962,0,0,0,2-3.466,4,4,0,0,0-6-3.466ZM10,59H4V47h6ZM58.15,47.634,40.522,57.812A13.08,13.08,0,0,1,32.5,59.464l-11.921-1.4A9.026,9.026,0,0,0,19.531,58H12V48h1a1,1,0,0,0,.515-.143l1.674-1A13,13,0,0,1,21.878,45h.851a12.993,12.993,0,0,1,4.11.667l3.845,1.282A1,1,0,0,0,31,47H43a2,2,0,0,1,0,4H28v2H43a3.992,3.992,0,0,0,3.952-3.525l9.194-5.306a2,2,0,0,1,3,1.731A1.983,1.983,0,0,1,58.15,47.634Z"/><path d="M59,13H58V12a3,3,0,0,0-3-3H54V8a3,3,0,0,0-3-3H11A3,3,0,0,0,8,8V30a3,3,0,0,0,3,3h1v1a3,3,0,0,0,3,3h1v1a3,3,0,0,0,3,3H59a3,3,0,0,0,3-3V16A3,3,0,0,0,59,13ZM11,31a1,1,0,0,1-1-1V8a1,1,0,0,1,1-1H51a1,1,0,0,1,1,1V9H15a3,3,0,0,0-3,3V31Zm4,4a1,1,0,0,1-1-1V12a1,1,0,0,1,1-1H55a1,1,0,0,1,1,1v1H19a3,3,0,0,0-3,3V35Zm45,3a1,1,0,0,1-1,1H19a1,1,0,0,1-1-1V16a1,1,0,0,1,1-1H59a1,1,0,0,1,1,1Z"/><path d="M39,17A10,10,0,1,0,49,27,10.011,10.011,0,0,0,39,17Zm0,18a8,8,0,1,1,8-8A8.009,8.009,0,0,1,39,35Z"/><path d="M38,24h2a1,1,0,0,1,1,1h2a3,3,0,0,0-3-3V21H38v1a3,3,0,0,0,0,6h2a1,1,0,0,1,0,2H38a1,1,0,0,1-1-1H35a3,3,0,0,0,3,3v1h2V32a3,3,0,0,0,0-6H38a1,1,0,0,1,0-2Z"/><path d="M57,17H53v2h3v3h2V18A1,1,0,0,0,57,17Z"/><path d="M56,35H53v2h4a1,1,0,0,0,1-1V32H56Z"/><path d="M20,18v4h2V19h3V17H21A1,1,0,0,0,20,18Z"/><path d="M22,32H20v4a1,1,0,0,0,1,1h4V35H22Z"/></g></svg>
