<svg id="Layer_1" enable-background="new 0 0 32 32" height="512" viewBox="0 0 32 32" width="512" xmlns="http://www.w3.org/2000/svg"><g><path d="m31 12.1c0-.1 0-.1 0-.2s0-.1 0-.2l-3.2-7.8c-.2-.4-.5-.6-.9-.6h-4.3-4.3-4.3-4.5-4.3c-.4 0-.8.2-.9.6l-3.2 7.8v.2c-.1.1-.1.1-.1.2 0 1.7 1.2 3.2 2.8 3.6v12c0 .6.4 1 1 1h4.5 5.6 12.3c.6 0 1-.4 1-1v-12c1.6-.4 2.8-1.9 2.8-3.6zm-9.3-6.9 1.7 6.9c0 1-.8 1.7-1.8 1.7s-1.8-.8-1.8-1.8l-.5-6.8zm-12.2 3.2c.3-.9.5-1.8.8-3.2h2.4l-.2 2.8c-.1 1-.2 2.1-.3 3.9 0 1-.8 1.8-1.8 1.8s-1.7-.8-1.8-1.7zm5-.1c.1-.8.2-1.7.3-3h2.5l.6 6.9c0 1-.8 1.8-1.8 1.8s-1.8-.8-1.8-1.8zm-11.5 3.9 2.8-7h2.4l-.6 2.7c-.3 1-.6 2.1-1 4v.1.1c0 1-.8 1.8-1.8 1.8-.9 0-1.7-.7-1.8-1.7zm7.3 14.6v-7h3.6v7zm5.6 0v-8c0-.6-.4-1-1-1h-5.6c-.6 0-1 .4-1 1v8h-2.5v-11c.7-.2 1.3-.6 1.8-1.1.7.8 1.7 1.3 2.8 1.3s2.1-.5 2.8-1.3c.7.8 1.7 1.3 2.8 1.3s2.1-.5 2.8-1.3c.7.8 1.7 1.3 2.8 1.3s2.1-.5 2.8-1.3c.5.5 1.1.9 1.8 1.1v11zm11.3-12.9c-1 0-1.8-.8-1.8-1.8v-.1-.1l-1.6-6.6h2.4l2.8 7c-.1.9-.9 1.6-1.8 1.6z"/><path d="m22.7 17.8h-3.3c-.6 0-1 .4-1 1v4.5c0 .6.4 1 1 1h3.3c.6 0 1-.4 1-1v-4.5c0-.6-.5-1-1-1zm-1 4.4h-1.3v-2.5h1.3z"/></g></svg>